<svg fill="none" height="24" viewBox="0 0 35 24" width="35" xmlns="http://www.w3.org/2000/svg" xmlns:xlink="http://www.w3.org/1999/xlink"><linearGradient id="a" gradientUnits="userSpaceOnUse" x1="2.98726" x2="31.7212" y1="10.8902" y2="10.8902"><stop offset="0" stop-color="#12d9c1"/><stop offset="1" stop-color="#ec7fff"/></linearGradient><path clip-rule="evenodd" d="m30.6035 1.09913h-26.20696c-1.82111 0-3.29741 1.4763-3.29741 3.2974v14.56617c0 1.8211 1.4763 3.2974 3.29741 3.2974h26.20696c1.8211 0 3.2974-1.4763 3.2974-3.2974v-14.56616c0-1.82111-1.4763-3.29741-3.2974-3.29741zm-26.20696-1.09913c-2.42814 0-4.39654 1.96839-4.39654 4.39653v14.56617c0 2.4281 1.9684 4.3965 4.39654 4.3965h26.20696c2.4281 0 4.3965-1.9684 4.3965-4.3965v-14.56616c0-2.42814-1.9684-4.39654-4.3965-4.39654zm-.6081 2.83752c0 .51602-.41832.93434-.93434.93434s-.93434-.41832-.93434-.93434.41832-.93434.93434-.93434.93434.41832.93434.93434zm2.35098.93433c.51602 0 .93434-.41832.93434-.93434s-.41832-.93434-.93434-.93434-.93434.41832-.93434.93434.41832.93434.93434.93434zm4.21558-.93434c0 .51602-.41831.93434-.93433.93434s-.93434-.41832-.93434-.93434.41832-.93434.93434-.93434.93433.41832.93433.93434zm3.3551 8.73659h-2.9492c.2169-2.69629 2.0156-4.94606 4.4673-5.82059-.1943.2946-.3704.62328-.5278.97733-.5703 1.28319-.9307 2.98042-.9903 4.84326zm-4.07032.5495c0-4.34119 3.51922-7.86044 7.86042-7.86044s7.8605 3.51925 7.8605 7.86044c0 4.3412-3.5193 7.8605-7.8605 7.8605s-7.86042-3.5193-7.86042-7.8605zm6.97452-6.33824c.3177-.30232.6161-.42307.8859-.42307.2699 0 .5683.12075.8859.42307.3205.30501.6342.77235.9095 1.39188.4981 1.12077.8357 2.6603.895 4.39686h-5.3807c.0593-1.73656.3968-3.27609.8949-4.39686.2754-.61953.589-1.08687.9095-1.39188zm3.6857.94548c.5703 1.28319.9308 2.98042.9903 4.84326h2.9492c-.2168-2.69629-2.0155-4.94606-4.4672-5.82059.1943.2946.3704.62328.5277.97733zm-5.4901 5.94236h5.3807c-.0593 1.7365-.3969 3.276-.895 4.3968-.2753.6195-.589 1.0869-.9095 1.3919-.3176.3023-.616.423-.8859.423-.2698 0-.5682-.1207-.8859-.423-.3205-.305-.6341-.7724-.9095-1.3919-.4981-1.1208-.8356-2.6603-.8949-4.3968zm5.4901 4.8432c-.1573.354-.3334.6827-.5277.9773 2.4517-.8745 4.2504-3.1243 4.4672-5.8205h-2.9492c-.0595 1.8628-.42 3.56-.9903 4.8432zm-5.5996 0c.1574.354.3335.6827.5278.9773-2.4517-.8745-4.2504-3.1243-4.4673-5.8205h2.9492c.0596 1.8628.42 3.56.9903 4.8432z" fill="url(#a)" fill-rule="evenodd"/></svg>