<?xml version="1.0" encoding="UTF-8"?> <svg xmlns="http://www.w3.org/2000/svg" width="34" height="21" viewBox="0 0 34 21" fill="none"><path id="Union" fill-rule="evenodd" clip-rule="evenodd" d="M6.29151 1.13037H28.3079C28.7111 1.13037 29.0957 1.2099 29.4468 1.35412H5.15259C5.50377 1.2099 5.88835 1.13037 6.29151 1.13037ZM3.48708 3.06264C3.36071 3.39436 3.29151 3.75429 3.29151 4.13037V16.1635C3.29151 16.5249 3.3554 16.8713 3.4725 17.1922H3.48708V16.5857V3.06264ZM30.8349 17.1922H31.1269C31.244 16.8713 31.3079 16.5249 31.3079 16.1635V4.13037C31.3079 3.53471 31.1343 2.9796 30.8349 2.51287V16.5857V17.1922ZM2.42501 17.1922C2.33792 16.8639 2.29151 16.5191 2.29151 16.1635V4.13037C2.29151 1.92123 4.08237 0.130371 6.29151 0.130371H28.3079C30.5171 0.130371 32.3079 1.92123 32.3079 4.13037V16.1635C32.3079 16.5191 32.2615 16.8639 32.1744 17.1922H32.9556H33.9556C33.9556 17.543 33.8948 17.8797 33.7831 18.1922C33.3725 19.3412 32.2744 20.1635 30.9842 20.1635H28.3198L28.3079 20.1635H6.29151L6.27966 20.1635H3.61526C2.32509 20.1635 1.22698 19.3412 0.816391 18.1922C0.704733 17.8797 0.643921 17.543 0.643921 17.1922H1.64392H2.42501ZM3.64567 19.1635H3.61526C2.89152 19.1635 2.25887 18.7735 1.91602 18.1922H2.84337C3.05851 18.5571 3.32992 18.8848 3.64567 19.1635ZM6.28125 19.1635C5.41076 19.1606 4.62758 18.7869 4.08137 18.1922L11.4259 18.1922C11.6976 18.4906 12.0892 18.6778 12.5246 18.6778H21.7969C22.2323 18.6778 22.624 18.4906 22.8957 18.1922L30.5181 18.1922C29.9718 18.7869 29.1887 19.1606 28.3182 19.1635H6.28125ZM30.9538 19.1635H30.9842C31.708 19.1635 32.3406 18.7735 32.6835 18.1922H31.7561C31.5409 18.5571 31.2695 18.8848 30.9538 19.1635ZM4.48708 2.35412H29.8349V16.5857H4.48708V2.35412Z" fill="url(#paint0_linear_633_3125)"></path><defs><linearGradient id="paint0_linear_633_3125" x1="3.48708" y1="9.46994" x2="30.835" y2="9.46994" gradientUnits="userSpaceOnUse"><stop stop-color="#12D9C1"></stop><stop offset="1" stop-color="#EC7FFF"></stop></linearGradient></defs></svg> 