<?xml version="1.0" encoding="UTF-8"?> <svg xmlns="http://www.w3.org/2000/svg" width="25" height="28" viewBox="0 0 25 28" fill="none"><path fill-rule="evenodd" clip-rule="evenodd" d="M13.9275 1.9166L22.6316 6.94193C23.4104 7.39153 23.8901 8.22242 23.8901 9.12162V19.1723C23.8901 20.0715 23.4104 20.9024 22.6316 21.352L13.9275 26.3773C13.1488 26.8269 12.1893 26.8269 11.4106 26.3773L2.70649 21.352C1.92777 20.9024 1.44805 20.0715 1.44805 19.1723V9.12162C1.44805 8.22242 1.92777 7.39153 2.7065 6.94193L11.4106 1.9166C12.1893 1.467 13.1488 1.467 13.9275 1.9166ZM10.8713 0.982446C11.9838 0.340161 13.3544 0.340161 14.4668 0.982446L23.171 6.00778C24.2834 6.65006 24.9687 7.83705 24.9687 9.12162V19.1723C24.9687 20.4568 24.2834 21.6438 23.171 22.2861L14.4668 27.3115C13.3544 27.9537 11.9838 27.9537 10.8713 27.3115L2.16716 22.2861C1.05469 21.6438 0.369385 20.4568 0.369385 19.1723V9.12162C0.369385 7.83705 1.05469 6.65006 2.16716 6.00778L10.8713 0.982446ZM14.3741 7.47428C14.3741 7.60176 14.3603 7.72601 14.3341 7.84564L17.2234 9.63044C17.5404 9.26297 18.0095 9.03037 18.5329 9.03037C19.4878 9.03037 20.2619 9.80446 20.2619 10.7593C20.2619 11.548 19.7339 12.2134 19.012 12.4211V15.8406C19.7339 16.0484 20.2619 16.7137 20.2619 17.5024C20.2619 18.4573 19.4878 19.2314 18.5329 19.2314C18.0392 19.2314 17.5938 19.0244 17.2787 18.6925L14.3078 20.3691C14.351 20.5203 14.3741 20.68 14.3741 20.845C14.3741 21.7999 13.6 22.574 12.6451 22.574C11.6902 22.574 10.9161 21.7999 10.9161 20.845C10.9161 20.0188 11.4956 19.328 12.2704 19.1568V15.9462C11.4956 15.775 10.9161 15.0841 10.9161 14.2579C10.9161 14.1113 10.9344 13.9689 10.9688 13.8329L8.03202 12.0187C7.72258 12.3099 7.30581 12.4883 6.84737 12.4883C5.89249 12.4883 5.11839 11.7142 5.11839 10.7593C5.11839 9.80446 5.89249 9.03037 6.84737 9.03037C7.80226 9.03037 8.57635 9.80446 8.57635 10.7593C8.57635 10.9506 8.54529 11.1347 8.48792 11.3067L11.3719 13.0882C11.6071 12.8323 11.9186 12.6474 12.2704 12.5697V9.16254C11.4956 8.99133 10.9161 8.30048 10.9161 7.47428C10.9161 6.51939 11.6902 5.7453 12.6451 5.7453C13.6 5.7453 14.3741 6.51939 14.3741 7.47428ZM13.1105 19.1794L13.1105 15.9236C13.8394 15.7203 14.3741 15.0516 14.3741 14.2579C14.3741 13.4643 13.8394 12.7955 13.1105 12.5923L13.1105 9.13991C13.4426 9.0473 13.7345 8.85802 13.9538 8.6043L16.8436 10.3895C16.8176 10.5087 16.804 10.6324 16.804 10.7593C16.804 11.5904 17.3903 12.2845 18.1719 12.4506V15.8112C17.3903 15.9772 16.804 16.6713 16.804 17.5024C16.804 17.6792 16.8305 17.8497 16.8798 18.0103L13.9222 19.6795C13.7068 19.4436 13.427 19.2676 13.1105 19.1794ZM8.57635 17.5024C8.57635 18.4573 7.80226 19.2314 6.84737 19.2314C5.89249 19.2314 5.11839 18.4573 5.11839 17.5024C5.11839 16.5475 5.89249 15.7734 6.84737 15.7734C7.80226 15.7734 8.57635 16.5475 8.57635 17.5024Z" fill="url(#paint0_linear_633_3365)"></path><defs><linearGradient id="paint0_linear_633_3365" x1="7.08472" y1="4.30593" x2="14.523" y2="25.2769" gradientUnits="userSpaceOnUse"><stop stop-color="#99C2FF"></stop><stop offset="1" stop-color="#2656FF"></stop></linearGradient></defs></svg> 