<svg xmlns="http://www.w3.org/2000/svg" width="129" height="32" viewBox="0 0 129 32" fill="none"><path fill-rule="evenodd" clip-rule="evenodd" d="M0.128906 15.6016C0.128906 7.05453 7.06285 0.101562 15.5865 0.101562C24.1101 0.101562 31.0441 7.05453 31.0441 15.6016C31.0441 24.1486 24.1101 31.1016 15.5865 31.1016C7.06285 31.1016 0.128906 24.1486 0.128906 15.6016ZM27.3977 11.0345C27.3501 10.9044 27.2575 10.796 27.1382 10.7275L27.1347 10.7266C27.0154 10.6589 26.8753 10.6347 26.7395 10.6589C26.6037 10.6841 26.4809 10.7561 26.3926 10.8619C26.3044 10.9677 26.2568 11.1021 26.2568 11.2409C26.2577 11.3111 26.2698 11.3797 26.294 11.4473C26.7801 12.743 27.0257 14.1029 27.0249 15.488C27.0249 18.291 26.0086 20.9891 24.1629 23.0844C22.3535 25.139 19.8782 26.4729 17.1823 26.8493V21.6222C17.4564 21.5658 17.7289 21.493 17.9944 21.4037V25.9274L18.1016 25.9014C20.3893 25.3437 22.4625 24.015 23.938 22.1582C25.4585 20.245 26.2629 17.9389 26.2629 15.4888C26.2655 13.5747 25.7552 11.6919 24.7865 10.0432C23.8187 8.39361 22.4236 7.03285 20.7534 6.1066C20.6825 6.06844 20.6073 6.04502 20.5277 6.03722C20.4481 6.02941 20.3694 6.03808 20.2933 6.06237C20.2172 6.08665 20.148 6.12568 20.0875 6.17772C20.0269 6.23062 19.9785 6.29306 19.943 6.36592C19.9041 6.44657 19.8834 6.5359 19.8834 6.62523C19.8834 6.73017 19.911 6.83338 19.9638 6.92357C20.0165 7.01377 20.0927 7.08922 20.1843 7.14039C21.672 7.96431 22.914 9.17503 23.7772 10.6425C24.6403 12.1099 25.0961 13.7863 25.0961 15.4897C25.0961 17.4419 24.5115 19.3187 23.4035 20.9188C22.3475 22.4453 20.8918 23.6187 19.188 24.3194V20.4887C19.4639 20.3915 19.706 20.2216 19.8937 19.9952C20.0944 19.7524 20.2189 19.4583 20.2553 19.1453C20.2916 18.8313 20.2362 18.5165 20.0953 18.2346C19.9629 17.9692 19.7623 17.7472 19.5132 17.5894C19.7413 15.4877 20.4083 15.0722 20.8969 14.7679L20.8979 14.7672C21.1885 14.5868 21.4393 14.4307 21.4393 13.9763V13.3293C21.4393 12.6589 20.7751 11.0943 19.2909 9.11172C17.2359 6.36678 16.0639 6.07971 15.756 6.05716C15.6405 6.04542 15.5405 6.05072 15.4299 6.05657L15.4187 6.05716C15.1082 6.07971 13.9363 6.36678 11.8787 9.11172C10.3919 11.0943 9.72677 12.6589 9.72677 13.3293V13.9745C9.72677 14.429 9.97759 14.5851 10.2682 14.7655C10.7569 15.0691 11.4246 15.4845 11.6529 17.5868C11.4289 17.7273 11.2421 17.9224 11.1106 18.1531C10.9705 18.4003 10.8978 18.6813 10.9004 18.9649C10.9004 19.6353 11.3407 20.2528 11.979 20.4878V24.3194C10.2751 23.6196 8.82034 22.4461 7.76343 20.9188C6.65635 19.3196 6.06994 17.4419 6.06994 15.4906C6.06994 12.024 7.95371 8.82465 10.9861 7.14039C11.0994 7.07708 11.1893 6.97735 11.2403 6.85766C11.2914 6.73798 11.3018 6.60355 11.2689 6.47779C11.2369 6.35204 11.1625 6.23929 11.0604 6.1595C10.9584 6.07971 10.8313 6.03548 10.7015 6.03548H10.7006C10.6029 6.03548 10.506 6.06063 10.4213 6.10833C8.75029 7.03372 7.35433 8.39448 6.38477 10.0432C5.41521 11.6919 4.90319 13.5756 4.90492 15.4897C4.90492 17.9406 5.70928 20.2467 7.22978 22.1599C8.70618 24.0168 10.7785 25.3454 13.0662 25.9031L13.1734 25.9291V21.4063C13.4389 21.4956 13.7114 21.5693 13.9856 21.6248V26.8519C11.2896 26.4746 8.81429 25.1399 7.00491 23.0862C5.1592 20.9908 4.14207 18.2936 4.14207 15.4897C4.1412 14.1046 4.3877 12.7447 4.87551 11.449C4.90232 11.3762 4.91443 11.2999 4.91183 11.2227C4.90924 11.1455 4.89108 11.07 4.85908 10.9998C4.82707 10.9295 4.7821 10.8671 4.72502 10.8142C4.66793 10.7613 4.60306 10.7205 4.53041 10.6936C4.45776 10.6667 4.38165 10.6546 4.30467 10.6572C4.22769 10.6598 4.15245 10.678 4.08239 10.7101C4.01233 10.7422 3.95006 10.7873 3.8973 10.8445C3.84454 10.9018 3.80389 10.9677 3.77708 11.0397C3.08083 12.9052 2.8326 14.9381 3.05834 16.9172C3.28408 18.8964 3.98466 20.82 5.08309 22.4799C6.18152 24.1399 7.6778 25.5345 9.40848 26.5119C11.14 27.4893 13.1042 28.0496 15.0892 28.1311L15.1791 28.1346V21.7748C15.353 21.7827 15.5727 21.787 15.5865 21.787C15.5897 21.7867 15.6099 21.7863 15.641 21.7856C15.7193 21.7838 15.867 21.7804 15.9913 21.7748V28.1346L16.0812 28.1311C18.0662 28.047 20.0295 27.4859 21.7602 26.5076C23.4909 25.5284 24.9863 24.1347 26.0847 22.4747C27.1832 20.8148 27.8846 18.892 28.1112 16.9129C28.3387 14.9338 28.0913 12.9009 27.3977 11.0345ZM13.3292 19.4866C13.4503 19.3054 13.5048 19.0868 13.484 18.87C13.4633 18.6532 13.3672 18.4494 13.2142 18.295C13.1268 18.2065 13.0239 18.1372 12.9088 18.0895C12.7938 18.0418 12.6727 18.0175 12.549 18.0175H12.5482C12.3311 18.0175 12.1192 18.0938 11.9514 18.2317C11.7836 18.3696 11.6677 18.563 11.6253 18.7772C11.5829 18.9906 11.6158 19.2143 11.7179 19.406C11.8199 19.5977 11.9869 19.7494 12.1875 19.8336C12.3882 19.9168 12.613 19.9281 12.8206 19.8656C13.0282 19.8023 13.2098 19.6688 13.3301 19.4875L13.3292 19.4866ZM19.4578 18.5236C19.3557 18.3311 19.1897 18.1793 18.989 18.0961C18.874 18.0475 18.7503 18.0232 18.6266 18.0232C18.5358 18.0232 18.4441 18.0362 18.3559 18.0631C18.1483 18.1255 17.9667 18.26 17.8456 18.4404C17.7245 18.6208 17.6692 18.8402 17.6899 19.0561C17.7107 19.273 17.8058 19.4768 17.9589 19.6311C18.0463 19.7196 18.1492 19.789 18.2642 19.8376C18.3793 19.8853 18.5004 19.9095 18.6249 19.9095H18.6258C18.8429 19.9095 19.0539 19.8341 19.2217 19.6962C19.3895 19.5583 19.5054 19.3649 19.5486 19.1515C19.591 18.9382 19.559 18.7144 19.4569 18.5228L19.4578 18.5236Z" fill="#F1F1F1"></path><path fill-rule="evenodd" clip-rule="evenodd" d="M47.3131 12.8126C46.9997 12.2365 46.5689 11.7979 46.0205 11.4968C45.4721 11.1957 44.8323 11.0451 44.1012 11.0451C43.2917 11.0451 42.5735 11.2284 41.9468 11.595C41.3201 11.9616 40.8305 12.4853 40.4779 13.1661C40.1254 13.8469 39.9491 14.6325 39.9491 15.5227C39.9491 16.4392 40.1254 17.2379 40.4779 17.9187C40.8435 18.5995 41.3462 19.1232 41.986 19.4898C42.6258 19.8564 43.37 20.0397 44.2187 20.0397C45.2632 20.0397 46.1184 19.7647 46.7843 19.2148C47.4502 18.6519 47.8876 17.8728 48.0965 16.8778H43.3961V14.7765H50.7992C50.7992 14.7765 50.8884 15.0538 50.8884 15.9643C50.8884 16.8747 50.7992 17.1724 50.7992 17.1724C50.6164 18.1282 50.2247 19.0119 49.6241 19.8236C49.0235 20.6354 48.2467 21.29 47.2935 21.7875C46.3534 22.2719 45.2959 22.5141 44.1208 22.5141C42.802 22.5141 41.6073 22.2196 40.5367 21.6304C39.4791 21.0281 38.6435 20.1968 38.0298 19.1363C37.4292 18.0758 37.1289 16.8713 37.1289 15.5227C37.1289 14.1742 37.4292 12.9697 38.0298 11.9092C38.6435 10.8356 39.4791 10.0043 40.5367 9.4151C41.6073 8.81285 42.7955 8.51172 44.1012 8.51172C45.6419 8.51172 46.9802 8.8914 48.1161 9.65077C49.252 10.397 50.0354 11.451 50.4663 12.8126H47.3131ZM54.8986 13.3757V22.3963H52.1567V13.3757H54.8986ZM60.1289 19.0381V13.7749H62.5575V11.5164H60.1289V8.68587H57.3674V11.5164H56.0748V13.7749H57.3674V19.0184C57.3674 21.2703 58.5229 22.3963 60.834 22.3963H62.5575V20.0789H61.2844C60.8666 20.0789 60.5663 20.0004 60.3835 19.8433C60.2138 19.6731 60.1289 19.4047 60.1289 19.0381ZM71.8544 22.3963L66.8798 16.2887V22.3963H64.1379V8.68847H66.8798V14.8354L71.8544 8.68847H75.1642L69.5237 15.4835L75.3209 22.3963H71.8544ZM80.1471 11.8503C79.5857 12.1776 79.1287 12.6293 78.7762 13.2054V11.5164H76.0343V22.3963H78.7762V16.976C78.7762 15.9679 78.9916 15.2609 79.4225 14.855C79.8664 14.4492 80.5192 14.2462 81.381 14.2462H82.1056V11.3593C81.3744 11.3593 80.7216 11.523 80.1471 11.8503ZM82.8557 16.9171C82.8557 15.8173 83.0711 14.8419 83.502 13.9909C83.9459 13.1399 84.54 12.4853 85.2842 12.0271C86.0415 11.5688 86.8836 11.3397 87.8107 11.3397C88.6202 11.3397 89.3252 11.5034 89.9258 11.8307C90.5395 12.158 91.0291 12.5704 91.3947 13.0679V11.5164H94.1562V22.3963H91.3947V20.8056C91.0422 21.3162 90.5526 21.7417 89.9258 22.0821C89.3122 22.4094 88.6006 22.5731 87.7911 22.5731C86.8771 22.5731 86.0415 22.3374 85.2842 21.8661C84.54 21.3947 83.9459 20.7336 83.502 19.8825C83.0711 19.0184 82.8557 18.03 82.8557 16.9171ZM91.3947 16.9564C91.3947 16.2887 91.2641 15.7191 91.003 15.2478C90.7419 14.7634 90.3894 14.3968 89.9454 14.148C89.5015 13.8862 89.0249 13.7553 88.5157 13.7553C88.0065 13.7553 87.5365 13.8796 87.1056 14.1284C86.6747 14.3772 86.3222 14.7437 86.048 15.2282C85.7869 15.6995 85.6563 16.2625 85.6563 16.9171C85.6563 17.5717 85.7869 18.1478 86.048 18.6453C86.3222 19.1297 86.6747 19.5029 87.1056 19.7647C87.5495 20.0266 88.0196 20.1575 88.5157 20.1575C89.0249 20.1575 89.5015 20.0331 89.9454 19.7844C90.3894 19.5225 90.7419 19.1559 91.003 18.6846C91.2641 18.2002 91.3947 17.6241 91.3947 16.9564ZM96.0234 22.3963H98.7653V17.7616L102.447 22.3963H106.012L101.194 16.976L105.973 11.5164H102.408L98.7653 16.1315V8.56401H96.0234V22.3963ZM123.66 11.3593C124.953 11.3593 125.997 11.7717 126.794 12.5966C127.59 13.4083 127.988 14.5474 127.988 16.0137V22.3963H125.246V16.3868C125.246 15.5227 125.031 14.8616 124.6 14.4033C124.169 13.932 123.582 13.6963 122.837 13.6963C122.08 13.6963 121.48 13.932 121.036 14.4033C120.605 14.8616 120.389 15.5227 120.389 16.3868V22.3963H117.647V11.5164H120.389V12.8715C120.755 12.4002 121.218 12.0336 121.78 11.7717C122.354 11.4968 122.981 11.3593 123.66 11.3593ZM53.5425 11.8308C54.4298 11.8308 55.149 11.1096 55.149 10.2199C55.149 9.33027 54.4298 8.60906 53.5425 8.60906C52.6553 8.60906 51.9361 9.33027 51.9361 10.2199C51.9361 11.1096 52.6553 11.8308 53.5425 11.8308ZM111.181 11.2558C113.049 11.3711 114.526 12.283 115.61 13.8119L109.181 19.616C110.408 20.8063 112.177 20.4887 113.255 19.4894C114.186 18.649 114.435 17.6662 114.216 16.6889L116.18 14.9162C116.591 16.1373 116.62 17.3128 116.352 18.3639C116.098 19.4294 115.52 20.3693 114.691 21.1178C112.233 23.337 108.699 22.9502 106.717 20.7437C104.697 18.494 104.698 14.9162 107.112 12.7364C108.304 11.6596 109.753 11.1612 111.181 11.2558ZM108.564 14.324C107.153 15.5978 107.289 17.3032 107.915 18.1476L112.438 14.0638C111.692 13.3795 109.947 13.049 108.564 14.324Z" fill="#F1F1F1"></path></svg>