<?xml version="1.0" encoding="UTF-8"?> <svg xmlns="http://www.w3.org/2000/svg" width="33" height="23" viewBox="0 0 33 23" fill="none"><path fill-rule="evenodd" clip-rule="evenodd" d="M28.5529 1.53247H4.34863C2.69178 1.53247 1.34863 2.87562 1.34863 4.53247V18.0258C1.34863 19.6827 2.69178 21.0258 4.34863 21.0258H28.5529C30.2098 21.0258 31.5529 19.6827 31.5529 18.0258V4.53247C31.5529 2.87562 30.2098 1.53247 28.5529 1.53247ZM4.34863 0.532471C2.13949 0.532471 0.348633 2.32334 0.348633 4.53247V18.0258C0.348633 20.235 2.13949 22.0258 4.34863 22.0258H28.5529C30.7621 22.0258 32.5529 20.235 32.5529 18.0258V4.53247C32.5529 2.32333 30.7621 0.532471 28.5529 0.532471H4.34863ZM3.83558 3.14322C3.83558 3.61802 3.45067 4.00292 2.97587 4.00292C2.50107 4.00292 2.11616 3.61802 2.11616 3.14322C2.11616 2.66841 2.50107 2.28351 2.97587 2.28351C3.45067 2.28351 3.83558 2.66841 3.83558 3.14322ZM5.99607 4.00292C6.47087 4.00292 6.85577 3.61802 6.85577 3.14322C6.85577 2.66841 6.47087 2.28351 5.99607 2.28351C5.52127 2.28351 5.13636 2.66841 5.13636 3.14322C5.13636 3.61802 5.52127 4.00292 5.99607 4.00292ZM9.87643 3.14322C9.87643 3.61802 9.49153 4.00292 9.01672 4.00292C8.54192 4.00292 8.15702 3.61802 8.15702 3.14322C8.15702 2.66841 8.54192 2.28351 9.01672 2.28351C9.49153 2.28351 9.87643 2.66841 9.87643 3.14322ZM12.9689 11.1877H10.2436C10.4416 8.69594 12.1064 6.61732 14.3743 5.81535C14.192 6.08972 14.027 6.39671 13.8798 6.72794C13.3549 7.90909 13.0232 9.47208 12.9689 11.1877ZM9.22387 11.6877C9.22387 7.69634 12.4595 4.46074 16.4508 4.46074C20.4421 4.46074 23.6777 7.69634 23.6777 11.6877C23.6777 15.679 20.4421 18.9146 16.4508 18.9146C12.4595 18.9146 9.22387 15.679 9.22387 11.6877ZM15.6317 5.85157C15.9248 5.5727 16.2007 5.46074 16.4508 5.46074C16.7009 5.46074 16.9768 5.5727 17.2698 5.85157C17.5654 6.13289 17.8544 6.5636 18.1079 7.13408C18.5672 8.16738 18.8781 9.58688 18.9321 11.1877H13.9694C14.0235 9.58688 14.3344 8.16738 14.7936 7.13408C15.0472 6.5636 15.3361 6.13289 15.6317 5.85157ZM19.0218 6.72794C19.5467 7.90909 19.8784 9.47208 19.9327 11.1877H22.6579C22.46 8.69594 20.7952 6.61732 18.5272 5.81535C18.7096 6.08972 18.8745 6.39671 19.0218 6.72794ZM14.7936 16.2412C14.3344 15.2079 14.0235 13.7884 13.9694 12.1877H18.9321C18.8781 13.7884 18.5672 15.2079 18.1079 16.2412C17.8544 16.8117 17.5654 17.2424 17.2698 17.5238C16.9768 17.8026 16.7009 17.9146 16.4508 17.9146C16.2007 17.9146 15.9248 17.8026 15.6317 17.5238C15.3361 17.2424 15.0472 16.8117 14.7936 16.2412ZM19.0218 16.6474C18.8745 16.9786 18.7096 17.2856 18.5272 17.56C20.7952 16.758 22.46 14.6794 22.6579 12.1877H19.9327C19.8784 13.9032 19.5467 15.4662 19.0218 16.6474ZM13.8798 16.6474C14.027 16.9786 14.192 17.2856 14.3743 17.56C12.1064 16.758 10.4416 14.6794 10.2436 12.1877H12.9689C13.0232 13.9032 13.3549 15.4662 13.8798 16.6474Z" fill="url(#paint0_linear_633_3143)"></path><defs><linearGradient id="paint0_linear_633_3143" x1="3.09728" y1="10.5528" x2="29.536" y2="10.5528" gradientUnits="userSpaceOnUse"><stop stop-color="#12D9C1"></stop><stop offset="1" stop-color="#EC7FFF"></stop></linearGradient></defs></svg> 