<svg fill="none" height="582" viewBox="0 0 452 582" width="452" xmlns="http://www.w3.org/2000/svg" xmlns:xlink="http://www.w3.org/1999/xlink"><filter id="a" color-interpolation-filters="sRGB" filterUnits="userSpaceOnUse" height="580.785" width="450.603" x=".951477" y=".731689"><feFlood flood-opacity="0" result="BackgroundImageFix"/><feBlend in="SourceGraphic" in2="BackgroundImageFix" mode="normal" result="shape"/><feGaussianBlur result="effect1_foregroundBlur_169_6795" stdDeviation="37"/></filter><linearGradient id="b" gradientUnits="userSpaceOnUse" x1="196.938" x2="139.754" y1="113.124" y2="71.1243"><stop offset="0" stop-color="#244d98"/><stop offset="1" stop-color="#00f0ff"/></linearGradient><linearGradient id="c"><stop offset="0" stop-color="#005d45"/><stop offset=".27" stop-color="#005d45"/><stop offset="1" stop-opacity="0"/></linearGradient><radialGradient id="d" cx="0" cy="0" gradientTransform="matrix(213.288 0 0 175.642 226.252 291.124)" gradientUnits="userSpaceOnUse" r="1" xlink:href="#c"/><linearGradient id="e"><stop offset="0" stop-color="#00fff0"/><stop offset="1" stop-color="#00fff0" stop-opacity="0"/></linearGradient><radialGradient id="f" cx="0" cy="0" gradientTransform="matrix(-29.32706008 139.50471843 -95.89728576 -20.15978738 121.607 151.622)" gradientUnits="userSpaceOnUse" r="1" xlink:href="#e"/><linearGradient id="g"><stop offset="0" stop-color="#0ff" stop-opacity=".86"/><stop offset=".1" stop-color="#09f9ff" stop-opacity=".76"/><stop offset=".55" stop-color="#31e3ff" stop-opacity=".36"/><stop offset=".86" stop-color="#4bd5ff" stop-opacity=".1"/><stop offset="1" stop-color="#55d0ff" stop-opacity="0"/></linearGradient><linearGradient id="h" gradientUnits="userSpaceOnUse" x1="74.9496" x2="377.56" xlink:href="#g" y1="291.124" y2="291.124"/><radialGradient id="i" cx="0" cy="0" gradientTransform="matrix(159.996 0 0 159.902 226.252 291.124)" gradientUnits="userSpaceOnUse" r="1" xlink:href="#c"/><radialGradient id="j" cx="0" cy="0" gradientTransform="matrix(-21.9999426 127.00262108 -72.92723552 -12.63277074 147.754 164.124)" gradientUnits="userSpaceOnUse" r="1" xlink:href="#e"/><linearGradient id="k" gradientUnits="userSpaceOnUse" x1="112.754" x2="339.754" xlink:href="#g" y1="291.124" y2="291.124"/><linearGradient id="l"><stop offset="0" stop-color="#00db00"/><stop offset=".09" stop-color="#00d100"/><stop offset=".71" stop-color="#009000"/><stop offset="1" stop-color="#070"/></linearGradient><linearGradient id="m" gradientUnits="userSpaceOnUse" x1="163.105" x2="163.105" xlink:href="#l" y1="194.075" y2="216.706"/><linearGradient id="n" gradientUnits="userSpaceOnUse" x1="135.158" x2="129.475" xlink:href="#l" y1="175.037" y2="196.944"/><linearGradient id="o"><stop offset=".471622" stop-color="#fff" stop-opacity="0"/><stop offset="1" stop-color="#fff"/></linearGradient><radialGradient id="p" cx="0" cy="0" gradientTransform="matrix(148.40239686 -169.69609923 169.5779165 148.29904386 140.874 229.817)" gradientUnits="userSpaceOnUse" r="1" xlink:href="#o"/><linearGradient id="q"><stop offset="0" stop-color="#fff"/><stop offset="1" stop-color="#fff" stop-opacity="0"/></linearGradient><linearGradient id="r" gradientUnits="userSpaceOnUse" x1="340.254" x2="170.971" xlink:href="#q" y1="89.3526" y2="252.072"/><radialGradient id="s" cx="0" cy="0" gradientTransform="matrix(55.55166217 19.8580025 -12.69311517 35.5082867 169.282 258.976)" gradientUnits="userSpaceOnUse" r="1" xlink:href="#o"/><linearGradient id="t" gradientUnits="userSpaceOnUse" x1="243.916" x2="232.255" xlink:href="#q" y1="275.413" y2="239.556"/><radialGradient id="u" cx="0" cy="0" gradientTransform="matrix(55.55166217 19.8580025 -12.69311517 35.5082867 169.282 267.976)" gradientUnits="userSpaceOnUse" r="1" xlink:href="#o"/><linearGradient id="v" gradientUnits="userSpaceOnUse" x1="243.916" x2="232.255" xlink:href="#q" y1="284.413" y2="248.556"/><linearGradient id="w" gradientUnits="userSpaceOnUse" x1="187.066" x2="165.783" y1="104.772" y2="205.316"><stop offset="0" stop-color="#8be4ff"/><stop offset="1" stop-color="#8be4ff" stop-opacity="0"/></linearGradient><linearGradient id="x"><stop offset="0" stop-color="#ff5f00"/><stop offset="1" stop-color="#c48409"/></linearGradient><radialGradient id="y" cx="0" cy="0" gradientTransform="matrix(-22.52778157 13.17472369 -17.0217729 -29.10594489 239.16 186.084)" gradientUnits="userSpaceOnUse" r="1" xlink:href="#x"/><radialGradient id="z" cx="0" cy="0" gradientTransform="matrix(-10.99019279 -8.17305437 9.13249807 -12.28034341 224.342 220.208)" gradientUnits="userSpaceOnUse" r="1" xlink:href="#x"/><radialGradient id="A" cx="0" cy="0" gradientTransform="matrix(-8.78265211 -1.87338002 2.22006535 -10.4079586 236.35 215.968)" gradientUnits="userSpaceOnUse" r="1" xlink:href="#x"/><radialGradient id="B" cx="0" cy="0" gradientTransform="matrix(-19.89718134 14.51193402 -19.26248564 -26.41061965 254.293 195.957)" gradientUnits="userSpaceOnUse" r="1"><stop offset="0" stop-color="#431900"/><stop offset="1" stop-color="#634100"/></radialGradient><radialGradient id="C" cx="0" cy="0" gradientTransform="matrix(-23.52876843 -13.33525708 13.33525708 -23.52876843 226.506 214.739)" gradientUnits="userSpaceOnUse" r="1"><stop offset="0" stop-color="#fff"/><stop offset="1" stop-color="#ffa800"/></radialGradient><linearGradient id="D" gradientUnits="userSpaceOnUse" x1="211.156" x2="209.997" y1="197.847" y2="206.105"><stop offset="0" stop-color="#fcff53"/><stop offset="1" stop-color="#986400"/></linearGradient><path clip-rule="evenodd" d="m125.276 104.695c12.162-9.1675 42.633-23.2337 67.696-6.4588 9.176 6.1418 16.075 11.2578 21.606 15.3588 13.381 9.922 18.76 13.91 29.019 12.141.787-.136 1.557-.271 2.309-.403 11.127-1.951 18.412-3.229 22.31 3.748 4.023 12.764 7.103 30.27-12.216 12.264-13.643-12.716-36.317-7.582-59.179-2.406-19.38 4.388-38.895 8.806-53.156 2.406-24.799-11.13-22.609-29.028-18.389-36.65z" fill="url(#b)" fill-rule="evenodd"/><path d="m192.972 98.2362.278-.4155zm-67.696 6.4588-.301-.399-.085.064-.051.093zm89.302 8.9.298-.402zm29.019 12.141.085.493zm2.309-.403-.086-.492zm22.31 3.748.477-.15-.015-.049-.025-.044zm-12.216 12.264.341-.366zm-59.179-2.406.111.488zm-53.156 2.406.205-.456zm49.585-43.5243c-12.675-8.4833-26.706-9.1572-39.066-6.5729-12.353 2.5828-23.078 8.4267-29.209 13.0482l.602.798c6.031-4.546 16.623-10.3189 28.811-12.8674 12.182-2.547 25.918-1.8664 38.306 6.4252zm21.626 15.3723c-5.532-4.102-12.439-9.223-21.626-15.3723l-.556.8311c9.165 6.1352 16.056 11.2442 21.586 15.3452zm28.636 12.05c-5.032.868-8.838.325-13.042-1.646-4.243-1.99-8.887-5.43-15.594-10.404l-.596.804c6.674 4.948 11.41 8.463 15.766 10.505 4.395 2.061 8.408 2.628 13.636 1.727zm2.308-.402c-.753.132-1.522.267-2.308.402l.17.986c.788-.136 1.558-.271 2.31-.403zm22.833 3.997c-1.012-1.812-2.258-3.109-3.748-3.991-1.487-.879-3.189-1.328-5.091-1.486-3.779-.316-8.456.508-13.994 1.48l.172.985c5.588-.98 10.118-1.771 13.738-1.469 1.798.15 3.343.568 4.666 1.351 1.319.78 2.447 1.94 3.384 3.617zm-.914.394c1.002 3.18 1.942 6.644 2.49 9.768.551 3.15.687 5.868.154 7.605-.262.855-.667 1.41-1.203 1.697-.537.288-1.307.362-2.415.038-2.243-.656-5.598-2.863-10.424-7.361l-.682.731c4.834 4.506 8.338 6.863 10.825 7.59 1.257.367 2.32.338 3.168-.116.848-.455 1.379-1.28 1.687-2.286.609-1.984.428-4.91-.125-8.07-.558-3.185-1.512-6.695-2.521-9.897zm-11.398 11.747c-6.959-6.486-16.195-8.389-26.49-8.046-10.288.343-21.722 2.933-33.14 5.518l.221.976c11.443-2.591 22.778-5.156 32.952-5.495 10.169-.339 19.091 1.549 25.775 7.778zm-59.63-2.528c-9.698 2.196-19.389 4.389-28.435 5.239-9.046.849-17.39.348-24.406-2.801l-.409.912c7.244 3.251 15.788 3.741 24.909 2.884 9.122-.856 18.879-3.066 28.562-5.258zm-52.841 2.438c-12.298-5.52-17.827-12.678-19.802-19.327-1.981-6.669-.411-12.911 1.646-16.625l-.875-.484c-2.164 3.908-3.799 10.426-1.73 17.394 2.076 6.987 7.85 14.343 20.352 19.954z" fill="#fff" fill-opacity=".5"/><g filter="url(#a)"><path d="m374.321 402.238c-5.084-19.844-19.455-39.407-42.717-58.142-19.06-15.347-44.208-30.073-72.729-42.581-70.024-30.713-69.031-73.973-68.613-79.268.005-.019.011-.043.017-.062 2.623-8.011 10.511-16.872 28.172-27.487 39.049-23.477 39.658-20.983 20.07-84.555-13.123-42.595-54.812-58.4916-114.807 28.519-4.243 6.152-7.812 12.045-10.807 17.694-.575-.138-1.172-.224-1.799-.239-7.29-.167-15.1426 8.575-17.5338 19.52-2.13 9.736.7777 17.933 6.5758 19.744-2.1764 21.001 4.643 36.496 12.182 46.854 5.137 11.38 12.694 23.352 22.566 35.722 15.45 19.352 36.681 39.804 63.1 60.786 14.551 11.552 24.678 22.979 31.579 33.853-5.374 5.363-12.739 9.788-21.614 12.881-16.32 5.683-37.156 6.758-60.25 3.116-46.292-7.298-62.3919 6.204-67.8766 14.898-7.3652 11.69-3.5636 27.458 9.0483 37.49 6.6919 5.325 14.6263 8.044 22.7803 8.044 5.485 0 11.074-1.228 16.448-3.723 3.628-1.682 4.916-5.473 2.867-8.465-2.043-2.987-6.645-4.048-10.278-2.361-10.047 4.66-17.685.478-21.3413-2.428-8.88-7.064-9.7912-17.034-6.1405-22.831 6.0302-9.574 24.8528-12.642 51.6428-8.417 26.037 4.105 49.885 2.762 68.962-3.876 8.642-3.007 16.199-7.074 22.38-11.963 9.542 21.608 7.128 40.133 3.477 51.776-4.074 12.986-11.817 24.93-22.392 34.537-9.86 8.952-21.712 15.304-33.378 17.875-10.337 2.28-25.398 2.701-38.462-8.254-2.92-2.447-7.696-2.485-10.668-.081s-3.018 6.337-.099 8.784c10.447 8.761 23.448 13.292 37.61 13.292 5.049 0 10.244-.578 15.525-1.739 30.36-6.701 57.076-31.34 66.472-61.307 5.433-17.321 4.87-35.794-1.619-53.426-1.573-4.282-3.488-8.512-5.734-12.685 1.352-1.93 2.536-3.928 3.54-5.993 17.4 16.207 28.155 29.834 34.731 43.298 11.637 23.811 10.609 48.354-3.663 87.532-1.195 3.288 1.068 6.748 5.061 7.738.726.176 1.451.263 2.171.263 3.245 0 6.245-1.74 7.226-4.431 7.493-20.576 11.341-36.912 12.101-51.423.836-15.863-2.078-30.359-8.891-44.316-8.747-17.904-24.151-35.32-44.836-53.621.308-5.907-.772-11.868-3.261-17.55-4.864-11.094-14.754-20.82-28.614-28.137-11.927-6.295-21.584-15.51-28.706-27.382-3.209-5.349-5.908-11.242-8.091-17.622.442-.105.871-.206 1.295-.306 9.826 15.567 28.665 34.876 64.766 50.71 27.272 11.964 51.225 25.963 69.269 40.497 21.092 16.987 34.046 34.418 38.503 51.82 5.381 21.006-1.868 42.126-21.55 62.769-2.571 2.701-2.002 6.606 1.277 8.723 1.382.894 3.024 1.329 4.655 1.329 2.235 0 4.452-.818 5.938-2.376 22.565-23.668 30.795-48.235 24.446-73.007zm-223.747-136.244c1.98 6.218 4.702 12.283 8.155 18.186-6.518-7.155-11.956-13.823-16.489-19.998 2.838.851 5.618 1.439 8.334 1.812zm87.355 93.602c-2.397-3.231-5.003-6.424-7.818-9.574 2.972 2.438 5.81 4.818 8.526 7.141-.197.812-.435 1.62-.708 2.428zm-57.743-74.547c8.363 14.004 19.867 24.935 34.185 32.496 10.122 5.344 17.4 12.169 21.416 19.606-9.437-7.58-19.652-15.361-30.569-23.439-19.507-14.424-32.583-30.426-38.944-47.647 1.672-.191 3.302-.435 4.893-.712 2.42 7.093 5.432 13.679 9.025 19.696z" fill="#0b2047"/><path d="m374.321 402.238c-5.084-19.844-19.455-39.407-42.717-58.142-19.06-15.347-44.208-30.073-72.729-42.581-70.024-30.713-69.031-73.973-68.613-79.268.005-.019.011-.043.017-.062 2.623-8.011 10.511-16.872 28.172-27.487 39.049-23.477 39.658-20.983 20.07-84.555-13.123-42.595-54.812-58.4916-114.807 28.519-4.243 6.152-7.812 12.045-10.807 17.694-.575-.138-1.172-.224-1.799-.239-7.29-.167-15.1426 8.575-17.5338 19.52-2.13 9.736.7777 17.933 6.5758 19.744-2.1764 21.001 4.643 36.496 12.182 46.854 5.137 11.38 12.694 23.352 22.566 35.722 15.45 19.352 36.681 39.804 63.1 60.786 14.551 11.552 24.678 22.979 31.579 33.853-5.374 5.363-12.739 9.788-21.614 12.881-16.32 5.683-37.156 6.758-60.25 3.116-46.292-7.298-62.3919 6.204-67.8766 14.898-7.3652 11.69-3.5636 27.458 9.0483 37.49 6.6919 5.325 14.6263 8.044 22.7803 8.044 5.485 0 11.074-1.228 16.448-3.723 3.628-1.682 4.916-5.473 2.867-8.465-2.043-2.987-6.645-4.048-10.278-2.361-10.047 4.66-17.685.478-21.3413-2.428-8.88-7.064-9.7912-17.034-6.1405-22.831 6.0302-9.574 24.8528-12.642 51.6428-8.417 26.037 4.105 49.885 2.762 68.962-3.876 8.642-3.007 16.199-7.074 22.38-11.963 9.542 21.608 7.128 40.133 3.477 51.776-4.074 12.986-11.817 24.93-22.392 34.537-9.86 8.952-21.712 15.304-33.378 17.875-10.337 2.28-25.398 2.701-38.462-8.254-2.92-2.447-7.696-2.485-10.668-.081s-3.018 6.337-.099 8.784c10.447 8.761 23.448 13.292 37.61 13.292 5.049 0 10.244-.578 15.525-1.739 30.36-6.701 57.076-31.34 66.472-61.307 5.433-17.321 4.87-35.794-1.619-53.426-1.573-4.282-3.488-8.512-5.734-12.685 1.352-1.93 2.536-3.928 3.54-5.993 17.4 16.207 28.155 29.834 34.731 43.298 11.637 23.811 10.609 48.354-3.663 87.532-1.195 3.288 1.068 6.748 5.061 7.738.726.176 1.451.263 2.171.263 3.245 0 6.245-1.74 7.226-4.431 7.493-20.576 11.341-36.912 12.101-51.423.836-15.863-2.078-30.359-8.891-44.316-8.747-17.904-24.151-35.32-44.836-53.621.308-5.907-.772-11.868-3.261-17.55-4.864-11.094-14.754-20.82-28.614-28.137-11.927-6.295-21.584-15.51-28.706-27.382-3.209-5.349-5.908-11.242-8.091-17.622.442-.105.871-.206 1.295-.306 9.826 15.567 28.665 34.876 64.766 50.71 27.272 11.964 51.225 25.963 69.269 40.497 21.092 16.987 34.046 34.418 38.503 51.82 5.381 21.006-1.868 42.126-21.55 62.769-2.571 2.701-2.002 6.606 1.277 8.723 1.382.894 3.024 1.329 4.655 1.329 2.235 0 4.452-.818 5.938-2.376 22.565-23.668 30.795-48.235 24.446-73.007zm-223.747-136.244c1.98 6.218 4.702 12.283 8.155 18.186-6.518-7.155-11.956-13.823-16.489-19.998 2.838.851 5.618 1.439 8.334 1.812zm87.355 93.602c-2.397-3.231-5.003-6.424-7.818-9.574 2.972 2.438 5.81 4.818 8.526 7.141-.197.812-.435 1.62-.708 2.428zm-57.743-74.547c8.363 14.004 19.867 24.935 34.185 32.496 10.122 5.344 17.4 12.169 21.416 19.606-9.437-7.58-19.652-15.361-30.569-23.439-19.507-14.424-32.583-30.426-38.944-47.647 1.672-.191 3.302-.435 4.893-.712 2.42 7.093 5.432 13.679 9.025 19.696z" fill="url(#d)"/><path d="m374.321 402.238c-5.084-19.844-19.455-39.407-42.717-58.142-19.06-15.347-44.208-30.073-72.729-42.581-70.024-30.713-69.031-73.973-68.613-79.268.005-.019.011-.043.017-.062 2.623-8.011 10.511-16.872 28.172-27.487 39.049-23.477 39.658-20.983 20.07-84.555-13.123-42.595-54.812-58.4916-114.807 28.519-4.243 6.152-7.812 12.045-10.807 17.694-.575-.138-1.172-.224-1.799-.239-7.29-.167-15.1426 8.575-17.5338 19.52-2.13 9.736.7777 17.933 6.5758 19.744-2.1764 21.001 4.643 36.496 12.182 46.854 5.137 11.38 12.694 23.352 22.566 35.722 15.45 19.352 36.681 39.804 63.1 60.786 14.551 11.552 24.678 22.979 31.579 33.853-5.374 5.363-12.739 9.788-21.614 12.881-16.32 5.683-37.156 6.758-60.25 3.116-46.292-7.298-62.3919 6.204-67.8766 14.898-7.3652 11.69-3.5636 27.458 9.0483 37.49 6.6919 5.325 14.6263 8.044 22.7803 8.044 5.485 0 11.074-1.228 16.448-3.723 3.628-1.682 4.916-5.473 2.867-8.465-2.043-2.987-6.645-4.048-10.278-2.361-10.047 4.66-17.685.478-21.3413-2.428-8.88-7.064-9.7912-17.034-6.1405-22.831 6.0302-9.574 24.8528-12.642 51.6428-8.417 26.037 4.105 49.885 2.762 68.962-3.876 8.642-3.007 16.199-7.074 22.38-11.963 9.542 21.608 7.128 40.133 3.477 51.776-4.074 12.986-11.817 24.93-22.392 34.537-9.86 8.952-21.712 15.304-33.378 17.875-10.337 2.28-25.398 2.701-38.462-8.254-2.92-2.447-7.696-2.485-10.668-.081s-3.018 6.337-.099 8.784c10.447 8.761 23.448 13.292 37.61 13.292 5.049 0 10.244-.578 15.525-1.739 30.36-6.701 57.076-31.34 66.472-61.307 5.433-17.321 4.87-35.794-1.619-53.426-1.573-4.282-3.488-8.512-5.734-12.685 1.352-1.93 2.536-3.928 3.54-5.993 17.4 16.207 28.155 29.834 34.731 43.298 11.637 23.811 10.609 48.354-3.663 87.532-1.195 3.288 1.068 6.748 5.061 7.738.726.176 1.451.263 2.171.263 3.245 0 6.245-1.74 7.226-4.431 7.493-20.576 11.341-36.912 12.101-51.423.836-15.863-2.078-30.359-8.891-44.316-8.747-17.904-24.151-35.32-44.836-53.621.308-5.907-.772-11.868-3.261-17.55-4.864-11.094-14.754-20.82-28.614-28.137-11.927-6.295-21.584-15.51-28.706-27.382-3.209-5.349-5.908-11.242-8.091-17.622.442-.105.871-.206 1.295-.306 9.826 15.567 28.665 34.876 64.766 50.71 27.272 11.964 51.225 25.963 69.269 40.497 21.092 16.987 34.046 34.418 38.503 51.82 5.381 21.006-1.868 42.126-21.55 62.769-2.571 2.701-2.002 6.606 1.277 8.723 1.382.894 3.024 1.329 4.655 1.329 2.235 0 4.452-.818 5.938-2.376 22.565-23.668 30.795-48.235 24.446-73.007zm-223.747-136.244c1.98 6.218 4.702 12.283 8.155 18.186-6.518-7.155-11.956-13.823-16.489-19.998 2.838.851 5.618 1.439 8.334 1.812zm87.355 93.602c-2.397-3.231-5.003-6.424-7.818-9.574 2.972 2.438 5.81 4.818 8.526 7.141-.197.812-.435 1.62-.708 2.428zm-57.743-74.547c8.363 14.004 19.867 24.935 34.185 32.496 10.122 5.344 17.4 12.169 21.416 19.606-9.437-7.58-19.652-15.361-30.569-23.439-19.507-14.424-32.583-30.426-38.944-47.647 1.672-.191 3.302-.435 4.893-.712 2.42 7.093 5.432 13.679 9.025 19.696z" fill="url(#f)"/><path d="m201.55 75.6876c18.039 0 30.732 14.2143 36.971 34.4604 19.588 63.572 18.973 61.077-20.07 84.554-17.661 10.62-25.543 19.477-28.172 27.487-.006.019-.006.043-.017.062-.418 5.296-1.411 48.556 68.614 79.269 28.52 12.508 53.668 27.233 72.728 42.58 23.262 18.731 37.633 38.294 42.717 58.143 6.344 24.772-1.88 49.339-24.446 73.007-1.486 1.563-3.703 2.376-5.937 2.376-1.631 0-3.274-.435-4.655-1.329-3.279-2.117-3.848-6.027-1.277-8.723 19.681-20.642 26.93-41.758 21.55-62.769-4.457-17.402-17.412-34.838-38.503-51.819-18.045-14.53-41.997-28.534-69.27-40.497-36.1-15.835-54.945-35.144-64.766-50.711-.423.1-.859.201-1.294.306 2.182 6.381 4.887 12.274 8.091 17.622 7.121 11.872 16.785 21.087 28.706 27.382 13.854 7.317 23.749 17.044 28.613 28.137 2.49 5.683 3.57 11.643 3.262 17.55 20.685 18.301 36.083 35.718 44.835 53.622 6.82 13.956 9.728 28.452 8.892 44.315-.761 14.511-4.609 30.847-12.101 51.423-.981 2.691-3.976 4.431-7.226 4.431-.72 0-1.445-.086-2.171-.263-3.993-.985-6.257-4.45-5.061-7.738 14.272-39.178 15.299-63.716 3.662-87.532-6.576-13.464-17.33-27.091-34.73-43.298-1.004 2.065-2.188 4.063-3.541 5.994 2.246 4.177 4.162 8.407 5.735 12.684 6.488 17.632 7.051 36.105 1.619 53.426-9.397 29.972-36.112 54.606-66.472 61.307-5.282 1.166-10.476 1.739-15.526 1.739-14.161 0-27.162-4.53-37.609-13.291-2.919-2.447-2.879-6.381.099-8.785 1.468-1.19 3.377-1.783 5.287-1.783 1.909 0 3.906.622 5.386 1.859 8.729 7.323 18.352 9.559 26.86 9.559 4.226 0 8.172-.549 11.602-1.309 11.666-2.576 23.518-8.924 33.379-17.876 10.574-9.606 18.317-21.546 22.391-34.536 3.651-11.638 6.065-30.164-3.476-51.777-6.181 4.89-13.738 8.957-22.38 11.963-11.852 4.125-25.543 6.204-40.459 6.204-9.095 0-18.642-.774-28.503-2.328-7.882-1.242-15.073-1.854-21.457-1.854-15.305 0-25.9322 3.518-30.1864 10.271-3.6507 5.798-2.7395 15.768 6.1405 22.832 2.4729 1.969 6.7669 4.521 12.4029 4.521 2.693 0 5.688-.583 8.938-2.088 1.172-.545 2.444-.803 3.697-.803 2.635 0 5.195 1.137 6.582 3.164 2.043 2.987.76 6.777-2.867 8.464-5.375 2.495-10.964 3.724-16.449 3.724-8.154 0-16.0881-2.72-22.78-8.044-12.6119-10.033-16.4134-25.8-9.0483-37.491 4.382-6.959 15.5603-16.991 43.5583-16.986 7 0 15.055.626 24.318 2.088 8.956 1.41 17.563 2.113 25.706 2.113 12.861 0 24.551-1.754 34.545-5.234 8.874-3.087 16.239-7.518 21.614-12.88-6.907-10.879-17.029-22.302-31.579-33.854-26.42-20.982-47.651-41.433-63.101-60.786-9.872-12.369-17.429-24.346-22.565-35.722-7.539-10.352-14.3532-25.852-12.183-46.853-5.7977-1.812-8.7054-10.009-6.5754-19.745 2.3738-10.844 10.0984-19.524 17.3304-19.524h.203c.627.015 1.225.101 1.799.239 2.995-5.649 6.565-11.547 10.807-17.694 31.457-45.6344 57.894-62.9554 77.813-62.9554zm-42.821 208.4964c-3.453-5.902-6.175-11.972-8.154-18.186-2.717-.372-5.497-.96-8.335-1.811 4.533 6.175 9.971 12.847 16.489 19.997zm77.059 52.967c-4.017-7.437-11.289-14.257-21.417-19.606-14.318-7.561-25.821-18.492-34.185-32.495-3.592-6.013-6.605-12.599-9.025-19.697-1.59.277-3.221.521-4.893.712 6.361 17.216 19.438 33.223 38.945 47.647 10.923 8.078 21.137 15.859 30.569 23.439m2.141 22.445c.273-.808.511-1.621.709-2.428-2.711-2.323-5.549-4.703-8.526-7.141 2.814 3.15 5.415 6.342 7.817 9.573m-36.373-284.8683c-22.954 0-50.221 21.9427-78.846 63.4573-3.952 5.736-7.475 11.471-10.476 17.058-.366-.047-.725-.076-1.091-.086-.081 0-.157 0-.238 0-7.864 0-15.9781 8.919-18.4738 20.309-2.101 9.616.621 18.042 6.4946 20.513-.8996 9.464-.0406 18.559 2.5482 27.052 2.13 6.983 5.426 13.584 9.808 19.615 5.172 11.428 12.792 23.482 22.647 35.832 15.497 19.41 36.78 39.919 63.263 60.949 13.192 10.472 23.616 21.589 30.998 33.045-5.235 5.048-12.368 9.23-20.673 12.121-9.832 3.422-21.3 5.157-34.092 5.157-8.091 0-16.663-.707-25.491-2.098-8.857-1.395-17.11-2.103-24.533-2.103-12.629 0-23.14 2.027-31.231 6.022-5.8967 2.911-10.389 6.773-13.3548 11.486-7.5973 12.058-3.6971 28.299 9.2689 38.618 6.837 5.439 14.9919 8.312 23.5869 8.312 5.792 0 11.515-1.296 17.017-3.848 4.185-1.94 5.665-6.323 3.308-9.764-1.543-2.252-4.451-3.652-7.591-3.652-1.486 0-2.966.32-4.266.922-2.815 1.305-5.63 1.97-8.369 1.97-5.166 0-9.159-2.314-11.596-4.254-8.4741-6.744-9.3737-16.217-5.9146-21.704 4.0221-6.381 14.1036-9.755 29.1586-9.755 6.361 0 13.506.617 21.237 1.835 9.872 1.558 19.536 2.347 28.723 2.347 15.172 0 28.939-2.112 40.912-6.28 8.137-2.834 15.34-6.582 21.428-11.151 8.735 20.758 6.408 38.509 2.856 49.841-4.028 12.838-11.678 24.638-22.125 34.131-9.71 8.818-21.364 15.069-32.815 17.598-3.837.846-7.638 1.276-11.3 1.276-9.937 0-18.695-3.121-26.037-9.277-1.648-1.386-3.853-2.146-6.21-2.146-2.356 0-4.463.731-6.1 2.055-3.424 2.772-3.476 7.317-.11 10.137 10.592 8.881 23.883 13.574 38.433 13.574 5.172 0 10.494-.597 15.828-1.773 30.755-6.787 57.795-31.703 67.296-61.995 5.485-17.488 4.922-36.143-1.631-53.942-1.52-4.129-3.384-8.283-5.548-12.355.951-1.395 1.822-2.824 2.594-4.273 16.216 15.271 26.82 28.606 33.303 41.878 11.526 23.592 10.487 47.953-3.697 86.897-1.382 3.785 1.242 7.79 5.838 8.928.819.201 1.66.306 2.502.306 3.813 0 7.237-2.103 8.334-5.109 7.522-20.653 11.388-37.066 12.154-51.657.841-16.002-2.095-30.632-8.979-44.713-8.207-16.795-22.426-33.844-44.731-53.626.25-5.989-.876-11.877-3.349-17.517-4.95-11.289-15.003-21.188-29.077-28.615-11.747-6.199-21.266-15.285-28.294-26.999-2.525-4.206-4.754-8.804-6.651-13.713 5.432 7.839 12.315 15.271 20.516 22.139 11.614 9.726 25.915 18.348 42.52 25.628 27.174 11.92 51.034 25.866 69.002 40.334 20.924 16.848 33.768 34.121 38.179 51.337 5.304 20.719-1.869 41.572-21.33 61.981-1.433 1.505-2.072 3.383-1.793 5.286.278 1.902 1.439 3.599 3.267 4.784 1.55 1.004 3.407 1.529 5.369 1.529 2.693 0 5.189-.998 6.854-2.743 22.792-23.902 31.092-48.732 24.673-73.796-5.131-20.035-19.612-39.761-43.042-58.625-19.135-15.409-44.377-30.188-72.99-42.739-69.333-30.412-68.387-73.145-68.004-78.288 2.844-8.608 11.915-17.412 27.719-26.914 1.428-.86 2.809-1.682 4.133-2.475 17.638-10.558 26.494-15.854 28.584-26.422 2.054-10.376-2.647-25.632-12.008-56.02l-.198-.641c-6.889-22.3679-20.772-35.1913-38.097-35.1913zm-48.033 201.9103c-3.082-3.618-5.966-7.207-8.636-10.739 1.573.377 3.163.688 4.765.927 1.074 3.298 2.374 6.577 3.871 9.812zm14.272-9.793c.842-.11 1.695-.239 2.56-.377 2.391 6.829 5.351 13.215 8.804 19.003 1.869 3.126 3.889 6.099 6.059 8.918-7.887-8.756-13.714-17.966-17.423-27.539zm63.303 65.241c-5.885-4.632-12.316-9.555-19.431-14.874.69.387 1.387.769 2.089 1.137 7.267 3.838 13.158 8.517 17.342 13.737z" fill="url(#h)"/></g><path d="m337.325 392.281c-3.814-18.066-14.594-35.876-32.044-52.933-14.298-13.971-33.162-27.377-54.557-38.764-52.528-27.961-51.783-67.344-51.47-72.165.005-.017.009-.039.013-.056 1.968-7.293 7.885-15.36 21.133-25.024 29.293-21.373 29.75-19.102 15.056-76.977-9.844-38.7776-41.117-53.2496-86.122 25.964-3.182 5.6-5.86 10.965-8.106 16.108-.431-.126-.88-.205-1.35-.218-5.468-.152-11.359 7.806-13.153 17.771-1.598 8.863.584 16.325 4.933 17.974-1.633 19.119 3.483 33.226 9.139 42.655 3.853 10.36 9.521 21.26 16.927 32.521 11.59 17.618 27.516 36.236 47.334 55.338 10.915 10.517 18.512 20.921 23.689 30.82-4.032 4.882-9.557 8.911-16.214 11.726-12.242 5.174-27.872 6.153-45.196 2.837-34.725-6.644-46.803 5.648-50.917 13.563-5.525 10.643-2.673 24.997 6.787 34.13 5.02 4.848 10.972 7.323 17.089 7.323 4.114 0 8.307-1.118 12.338-3.389 2.722-1.532 3.688-4.982 2.151-7.706-1.532-2.72-4.985-3.686-7.71-2.15-7.537 4.243-13.266.436-16.009-2.21-6.661-6.431-7.345-15.508-4.606-20.786 4.523-8.715 18.642-11.508 38.739-7.662 19.531 3.738 37.421 2.515 51.732-3.529 6.482-2.737 12.151-6.44 16.788-10.891 7.157 19.672 5.346 36.537 2.607 47.137-3.056 11.822-8.864 22.695-16.796 31.441-7.397 8.15-16.288 13.933-25.039 16.274-7.754 2.075-19.052 2.458-28.852-7.515-2.19-2.228-5.773-2.262-8.002-.074-2.229 2.189-2.264 5.77-.074 7.998 7.837 7.975 17.589 12.1 28.212 12.1 3.788 0 7.685-.526 11.646-1.583 22.775-6.101 42.815-28.531 49.864-55.813 4.075-15.769 3.653-32.586-1.215-48.638-1.18-3.898-2.616-7.749-4.301-11.548 1.014-1.758 1.902-3.576 2.655-5.456 13.053 14.755 21.12 27.16 26.053 39.417 8.73 21.678 7.959 44.021-2.747 79.688-.897 2.993.801 6.144 3.797 7.044.544.161 1.088.24 1.628.24 2.434 0 4.684-1.584 5.42-4.034 5.621-18.732 8.507-33.604 9.078-46.814.627-14.442-1.559-27.639-6.67-40.344-6.561-16.3-18.116-32.156-33.633-48.816.231-5.378-.579-10.804-2.447-15.978-3.648-10.099-11.067-18.954-21.464-25.615-8.947-5.731-16.191-14.12-21.533-24.928-2.408-4.869-4.432-10.234-6.069-16.043.331-.096.653-.187.971-.279 7.37 14.172 21.503 31.751 48.583 46.166 20.458 10.891 38.426 23.636 51.962 36.868 15.821 15.464 25.539 31.333 28.883 47.176 4.036 19.123-1.402 38.351-16.166 57.144-1.928 2.458-1.502 6.013.958 7.941 1.036.813 2.268 1.209 3.492 1.209 1.676 0 3.339-.744 4.454-2.162 16.927-21.547 23.101-43.912 18.338-66.465zm-167.842-124.035c1.485 5.661 3.527 11.182 6.117 16.556-4.889-6.514-8.968-12.584-12.369-18.205 2.129.774 4.215 1.309 6.252 1.649zm65.529 85.213c-1.798-2.941-3.753-5.848-5.865-8.715 2.229 2.219 4.358 4.386 6.396 6.501-.148.739-.327 1.475-.531 2.21zm-43.316-67.865c6.274 12.749 14.903 22.7 25.644 29.584 7.593 4.864 13.052 11.078 16.065 17.848-7.079-6.901-14.742-13.985-22.931-21.338-14.633-13.132-24.442-27.7-29.214-43.377 1.254-.174 2.478-.396 3.671-.648 1.815 6.457 4.075 12.453 6.77 17.931z" fill="#0b2047"/><path d="m337.325 392.281c-3.814-18.066-14.594-35.876-32.044-52.933-14.298-13.971-33.162-27.377-54.557-38.764-52.528-27.961-51.783-67.344-51.47-72.165.005-.017.009-.039.013-.056 1.968-7.293 7.885-15.36 21.133-25.024 29.293-21.373 29.75-19.102 15.056-76.977-9.844-38.7776-41.117-53.2496-86.122 25.964-3.182 5.6-5.86 10.965-8.106 16.108-.431-.126-.88-.205-1.35-.218-5.468-.152-11.359 7.806-13.153 17.771-1.598 8.863.584 16.325 4.933 17.974-1.633 19.119 3.483 33.226 9.139 42.655 3.853 10.36 9.521 21.26 16.927 32.521 11.59 17.618 27.516 36.236 47.334 55.338 10.915 10.517 18.512 20.921 23.689 30.82-4.032 4.882-9.557 8.911-16.214 11.726-12.242 5.174-27.872 6.153-45.196 2.837-34.725-6.644-46.803 5.648-50.917 13.563-5.525 10.643-2.673 24.997 6.787 34.13 5.02 4.848 10.972 7.323 17.089 7.323 4.114 0 8.307-1.118 12.338-3.389 2.722-1.532 3.688-4.982 2.151-7.706-1.532-2.72-4.985-3.686-7.71-2.15-7.537 4.243-13.266.436-16.009-2.21-6.661-6.431-7.345-15.508-4.606-20.786 4.523-8.715 18.642-11.508 38.739-7.662 19.531 3.738 37.421 2.515 51.732-3.529 6.482-2.737 12.151-6.44 16.788-10.891 7.157 19.672 5.346 36.537 2.607 47.137-3.056 11.822-8.864 22.695-16.796 31.441-7.397 8.15-16.288 13.933-25.039 16.274-7.754 2.075-19.052 2.458-28.852-7.515-2.19-2.228-5.773-2.262-8.002-.074-2.229 2.189-2.264 5.77-.074 7.998 7.837 7.975 17.589 12.1 28.212 12.1 3.788 0 7.685-.526 11.646-1.583 22.775-6.101 42.815-28.531 49.864-55.813 4.075-15.769 3.653-32.586-1.215-48.638-1.18-3.898-2.616-7.749-4.301-11.548 1.014-1.758 1.902-3.576 2.655-5.456 13.053 14.755 21.12 27.16 26.053 39.417 8.73 21.678 7.959 44.021-2.747 79.688-.897 2.993.801 6.144 3.797 7.044.544.161 1.088.24 1.628.24 2.434 0 4.684-1.584 5.42-4.034 5.621-18.732 8.507-33.604 9.078-46.814.627-14.442-1.559-27.639-6.67-40.344-6.561-16.3-18.116-32.156-33.633-48.816.231-5.378-.579-10.804-2.447-15.978-3.648-10.099-11.067-18.954-21.464-25.615-8.947-5.731-16.191-14.12-21.533-24.928-2.408-4.869-4.432-10.234-6.069-16.043.331-.096.653-.187.971-.279 7.37 14.172 21.503 31.751 48.583 46.166 20.458 10.891 38.426 23.636 51.962 36.868 15.821 15.464 25.539 31.333 28.883 47.176 4.036 19.123-1.402 38.351-16.166 57.144-1.928 2.458-1.502 6.013.958 7.941 1.036.813 2.268 1.209 3.492 1.209 1.676 0 3.339-.744 4.454-2.162 16.927-21.547 23.101-43.912 18.338-66.465zm-167.842-124.035c1.485 5.661 3.527 11.182 6.117 16.556-4.889-6.514-8.968-12.584-12.369-18.205 2.129.774 4.215 1.309 6.252 1.649zm65.529 85.213c-1.798-2.941-3.753-5.848-5.865-8.715 2.229 2.219 4.358 4.386 6.396 6.501-.148.739-.327 1.475-.531 2.21zm-43.316-67.865c6.274 12.749 14.903 22.7 25.644 29.584 7.593 4.864 13.052 11.078 16.065 17.848-7.079-6.901-14.742-13.985-22.931-21.338-14.633-13.132-24.442-27.7-29.214-43.377 1.254-.174 2.478-.396 3.671-.648 1.815 6.457 4.075 12.453 6.77 17.931z" fill="url(#i)"/><path d="m337.325 392.281c-3.814-18.066-14.594-35.876-32.044-52.933-14.298-13.971-33.162-27.377-54.557-38.764-52.528-27.961-51.783-67.344-51.47-72.165.005-.017.009-.039.013-.056 1.968-7.293 7.885-15.36 21.133-25.024 29.293-21.373 29.75-19.102 15.056-76.977-9.844-38.7776-41.117-53.2496-86.122 25.964-3.182 5.6-5.86 10.965-8.106 16.108-.431-.126-.88-.205-1.35-.218-5.468-.152-11.359 7.806-13.153 17.771-1.598 8.863.584 16.325 4.933 17.974-1.633 19.119 3.483 33.226 9.139 42.655 3.853 10.36 9.521 21.26 16.927 32.521 11.59 17.618 27.516 36.236 47.334 55.338 10.915 10.517 18.512 20.921 23.689 30.82-4.032 4.882-9.557 8.911-16.214 11.726-12.242 5.174-27.872 6.153-45.196 2.837-34.725-6.644-46.803 5.648-50.917 13.563-5.525 10.643-2.673 24.997 6.787 34.13 5.02 4.848 10.972 7.323 17.089 7.323 4.114 0 8.307-1.118 12.338-3.389 2.722-1.532 3.688-4.982 2.151-7.706-1.532-2.72-4.985-3.686-7.71-2.15-7.537 4.243-13.266.436-16.009-2.21-6.661-6.431-7.345-15.508-4.606-20.786 4.523-8.715 18.642-11.508 38.739-7.662 19.531 3.738 37.421 2.515 51.732-3.529 6.482-2.737 12.151-6.44 16.788-10.891 7.157 19.672 5.346 36.537 2.607 47.137-3.056 11.822-8.864 22.695-16.796 31.441-7.397 8.15-16.288 13.933-25.039 16.274-7.754 2.075-19.052 2.458-28.852-7.515-2.19-2.228-5.773-2.262-8.002-.074-2.229 2.189-2.264 5.77-.074 7.998 7.837 7.975 17.589 12.1 28.212 12.1 3.788 0 7.685-.526 11.646-1.583 22.775-6.101 42.815-28.531 49.864-55.813 4.075-15.769 3.653-32.586-1.215-48.638-1.18-3.898-2.616-7.749-4.301-11.548 1.014-1.758 1.902-3.576 2.655-5.456 13.053 14.755 21.12 27.16 26.053 39.417 8.73 21.678 7.959 44.021-2.747 79.688-.897 2.993.801 6.144 3.797 7.044.544.161 1.088.24 1.628.24 2.434 0 4.684-1.584 5.42-4.034 5.621-18.732 8.507-33.604 9.078-46.814.627-14.442-1.559-27.639-6.67-40.344-6.561-16.3-18.116-32.156-33.633-48.816.231-5.378-.579-10.804-2.447-15.978-3.648-10.099-11.067-18.954-21.464-25.615-8.947-5.731-16.191-14.12-21.533-24.928-2.408-4.869-4.432-10.234-6.069-16.043.331-.096.653-.187.971-.279 7.37 14.172 21.503 31.751 48.583 46.166 20.458 10.891 38.426 23.636 51.962 36.868 15.821 15.464 25.539 31.333 28.883 47.176 4.036 19.123-1.402 38.351-16.166 57.144-1.928 2.458-1.502 6.013.958 7.941 1.036.813 2.268 1.209 3.492 1.209 1.676 0 3.339-.744 4.454-2.162 16.927-21.547 23.101-43.912 18.338-66.465zm-167.842-124.035c1.485 5.661 3.527 11.182 6.117 16.556-4.889-6.514-8.968-12.584-12.369-18.205 2.129.774 4.215 1.309 6.252 1.649zm65.529 85.213c-1.798-2.941-3.753-5.848-5.865-8.715 2.229 2.219 4.358 4.386 6.396 6.501-.148.739-.327 1.475-.531 2.21zm-43.316-67.865c6.274 12.749 14.903 22.7 25.644 29.584 7.593 4.864 13.052 11.078 16.065 17.848-7.079-6.901-14.742-13.985-22.931-21.338-14.633-13.132-24.442-27.7-29.214-43.377 1.254-.174 2.478-.396 3.671-.648 1.815 6.457 4.075 12.453 6.77 17.931z" fill="url(#j)"/><path d="m207.723 94.9945c13.531 0 23.053 12.9405 27.733 31.3725 14.694 57.875 14.232 55.603-15.055 76.976-13.249 9.669-19.161 17.731-21.133 25.024-.005.017-.005.039-.014.057-.313 4.821-1.057 44.203 51.47 72.164 21.395 11.387 40.26 24.793 54.557 38.765 17.45 17.052 28.23 34.862 32.044 52.932 4.758 22.552-1.411 44.917-18.338 66.464-1.115 1.423-2.778 2.163-4.454 2.163-1.223 0-2.456-.396-3.492-1.21-2.46-1.927-2.886-5.487-.958-7.941 14.764-18.792 20.202-38.016 16.166-57.144-3.344-15.842-13.061-31.716-28.883-47.175-13.536-13.228-31.504-25.977-51.962-36.868-27.08-14.415-41.217-31.994-48.583-46.166-.318.091-.645.183-.971.278 1.637 5.809 3.666 11.174 6.069 16.043 5.342 10.809 12.591 19.198 21.534 24.928 10.392 6.662 17.815 15.517 21.464 25.616 1.867 5.173 2.677 10.599 2.446 15.977 15.517 16.661 27.068 32.517 33.633 48.816 5.116 12.706 7.297 25.903 6.67 40.344-.57 13.211-3.457 28.083-9.078 46.815-.735 2.45-2.982 4.033-5.42 4.033-.54 0-1.084-.078-1.628-.239-2.996-.896-4.694-4.051-3.797-7.045 10.706-35.666 11.477-58.005 2.747-79.687-4.932-12.257-13-24.663-26.052-39.418-.754 1.88-1.642 3.699-2.656 5.457 1.685 3.803 3.122 7.654 4.301 11.548 4.868 16.051 5.29 32.869 1.215 48.637-7.049 27.287-27.089 49.713-49.863 55.813-3.962 1.062-7.859 1.584-11.647 1.584-10.623 0-20.375-4.125-28.212-12.101-2.19-2.228-2.159-5.809.074-7.997 1.102-1.084 2.534-1.623 3.966-1.623 1.433 0 2.93.566 4.041 1.692 6.548 6.666 13.766 8.703 20.149 8.703 3.169 0 6.13-.501 8.703-1.192 8.751-2.346 17.641-8.124 25.038-16.274 7.933-8.746 13.741-19.615 16.797-31.442 2.739-10.595 4.55-27.46-2.608-47.136-4.637 4.451-10.305 8.154-16.788 10.891-8.89 3.755-19.161 5.648-30.35 5.648-6.822 0-13.984-.705-21.381-2.119-5.913-1.131-11.307-1.688-16.096-1.688-11.481 0-19.452 3.202-22.644 9.35-2.738 5.278-2.055 14.355 4.607 20.786 1.854 1.793 5.076 4.116 9.303 4.116 2.021 0 4.267-.531 6.705-1.901.88-.496 1.833-.731 2.774-.731 1.976 0 3.896 1.035 4.937 2.88 1.532 2.72.57 6.17-2.151 7.706-4.032 2.271-8.224 3.39-12.339 3.39-6.117 0-12.068-2.476-17.088-7.323-9.461-9.133-12.312-23.488-6.788-34.131 3.288-6.335 11.673-15.469 32.675-15.464 5.251 0 11.294.57 18.243 1.901 6.717 1.284 13.174 1.924 19.282 1.924 9.648 0 18.417-1.597 25.914-4.765 6.657-2.811 12.182-6.844 16.213-11.726-5.181-9.904-12.774-20.303-23.689-30.82-19.818-19.102-35.744-37.72-47.334-55.338-7.405-11.261-13.074-22.165-16.927-32.521-5.655-9.425-10.767-23.536-9.138-42.655-4.35-1.649-6.531-9.111-4.933-17.975 1.78-9.872 7.575-17.774 13-17.774h.152c.471.013.919.091 1.35.217 2.247-5.143 4.924-10.512 8.107-16.108 23.597-41.545 43.428-57.3135 58.371-57.3135zm-32.122 189.8115c-2.591-5.373-4.633-10.899-6.117-16.556-2.038-.339-4.123-.875-6.252-1.649 3.4 5.622 7.479 11.696 12.369 18.205zm57.804 48.22c-3.013-6.77-8.468-12.979-16.065-17.848-10.741-6.884-19.37-16.835-25.644-29.584-2.695-5.474-4.954-11.47-6.77-17.931-1.193.252-2.416.474-3.67.648 4.772 15.673 14.581 30.245 29.214 43.377 8.193 7.353 15.856 14.437 22.931 21.338m1.606 20.433c.205-.735.384-1.475.532-2.21-2.034-2.115-4.163-4.282-6.396-6.501 2.112 2.868 4.062 5.774 5.864 8.716m-27.284-259.3397c-17.22 0-37.673 19.9767-59.146 57.7707-2.965 5.221-5.608 10.443-7.859 15.529-.274-.043-.544-.069-.818-.078-.061 0-.118 0-.179 0-5.899 0-11.986 8.119-13.858 18.488-1.576 8.755.466 16.426 4.872 18.676-.675 8.615-.03 16.895 1.911 24.627 1.598 6.357 4.071 12.366 7.358 17.858 3.88 10.403 9.596 21.377 16.989 32.62 11.624 17.671 27.589 36.341 47.455 55.487 9.897 9.533 17.716 19.654 23.254 30.084-3.927 4.595-9.278 8.402-15.508 11.034-7.375 3.116-15.978 4.695-25.574 4.695-6.069 0-12.5-.644-19.122-1.91-6.644-1.27-12.835-1.914-18.403-1.914-9.474 0-17.358 1.845-23.428 5.482-4.423 2.65-7.793 6.166-10.018 10.456-5.699 10.978-2.773 25.763 6.953 35.158 5.129 4.951 11.246 7.566 17.694 7.566 4.345 0 8.638-1.179 12.765-3.502 3.139-1.767 4.249-5.757 2.482-8.89-1.158-2.049-3.339-3.324-5.695-3.324-1.114 0-2.225.291-3.2.84-2.111 1.188-4.223 1.792-6.278 1.792-3.875 0-6.87-2.106-8.699-3.872-6.356-6.14-7.031-14.764-4.436-19.759 3.017-5.809 10.579-8.881 21.873-8.881 4.772 0 10.131.562 15.93 1.671 7.406 1.419 14.655 2.137 21.547 2.137 11.381 0 21.708-1.924 30.69-5.718 6.104-2.58 11.507-5.991 16.074-10.151 6.552 18.897 4.806 35.057 2.142 45.374-3.022 11.687-8.76 22.43-16.597 31.072-7.284 8.028-16.026 13.719-24.616 16.021-2.878.77-5.729 1.162-8.477 1.162-7.453 0-14.023-2.842-19.531-8.446-1.236-1.262-2.89-1.954-4.658-1.954s-3.348.666-4.576 1.871c-2.569 2.524-2.608 6.662-.083 9.229 7.946 8.085 17.916 12.358 28.831 12.358 3.879 0 7.872-.544 11.873-1.615 23.07-6.178 43.354-28.861 50.481-56.439 4.115-15.921 3.692-32.904-1.223-49.108-1.141-3.759-2.538-7.54-4.162-11.247.714-1.271 1.367-2.572 1.946-3.89 12.164 13.902 20.119 26.042 24.982 38.125 8.646 21.477 7.867 43.655-2.774 79.109-1.036 3.446.932 7.092 4.38 8.128.614.183 1.245.278 1.877.278 2.86 0 5.429-1.914 6.252-4.651 5.642-18.802 8.542-33.744 9.116-47.028.632-14.568-1.571-27.887-6.735-40.705-6.156-15.29-16.823-30.811-33.554-48.82.187-5.453-.658-10.813-2.512-15.948-3.714-10.277-11.255-19.288-21.813-26.05-8.812-5.644-15.952-13.915-21.224-24.58-1.894-3.829-3.566-8.015-4.989-12.484 4.075 7.136 9.238 13.903 15.39 20.155 8.712 8.855 19.44 16.704 31.896 23.331 20.384 10.852 38.282 23.549 51.761 36.72 15.696 15.338 25.33 31.063 28.639 46.736 3.98 18.862-1.402 37.847-16 56.426-1.075 1.371-1.554 3.081-1.345 4.813.209 1.731 1.08 3.276 2.451 4.355 1.163.914 2.556 1.392 4.027 1.392 2.02 0 3.893-.909 5.142-2.497 17.097-21.76 23.323-44.365 18.508-67.182-3.849-18.241-14.711-36.198-32.288-53.372-14.354-14.028-33.288-27.482-54.752-38.908-52.01-27.687-51.3-66.591-51.013-71.273 2.133-7.836 8.938-15.851 20.793-24.501 1.071-.784 2.108-1.532 3.1-2.254 13.231-9.612 19.875-14.433 21.442-24.054 1.542-9.446-1.985-23.335-9.007-51l-.149-.583c-5.167-20.363-15.582-32.0377-28.577-32.0377zm-36.032 183.8157c-2.312-3.294-4.476-6.561-6.478-9.777 1.179.344 2.372.627 3.574.844.805 3.003 1.781 5.987 2.904 8.933zm10.706-8.915c.631-.101 1.271-.218 1.92-.344 1.794 6.218 4.014 12.031 6.604 17.3 1.402 2.846 2.917 5.552 4.546 8.119-5.917-7.971-10.288-16.356-13.07-25.071zm47.486 59.393c-4.415-4.216-9.239-8.698-14.576-13.541.518.353 1.04.701 1.567 1.036 5.451 3.494 9.87 7.754 13.009 12.505z" fill="url(#k)"/><path d="m163.105 216.271c6.014 0 10.889-4.872 10.889-10.883 0-6.01-4.875-10.882-10.889-10.882-6.013 0-10.888 4.872-10.888 10.882 0 6.011 4.875 10.883 10.888 10.883z" fill="#163629"/><path d="m163.105 210.827c3.006 0 5.443-2.435 5.443-5.439 0-3.003-2.437-5.439-5.443-5.439-3.005 0-5.442 2.436-5.442 5.439 0 3.004 2.437 5.439 5.442 5.439z" fill="#163629"/><path d="m166.458 206.846c3.255 0 5.895-2.638 5.895-5.891 0-3.254-2.64-5.892-5.895-5.892-3.256 0-5.895 2.638-5.895 5.892 0 3.253 2.639 5.891 5.895 5.891z" fill="#163629"/><path d="m170.28 212.807c1.503 0 2.721-1.217 2.721-2.719s-1.218-2.72-2.721-2.72c-1.502 0-2.721 1.218-2.721 2.72s1.219 2.719 2.721 2.719z" fill="#163629"/><path d="m165.578 214.787c1.094 0 1.981-.886 1.981-1.98 0-1.093-.887-1.98-1.981-1.98s-1.981.887-1.981 1.98c0 1.094.887 1.98 1.981 1.98z" fill="#163629"/><path d="m163.105 216.271c6.014 0 10.889-4.872 10.889-10.883 0-6.01-4.875-10.882-10.889-10.882-6.013 0-10.888 4.872-10.888 10.882 0 6.011 4.875 10.883 10.888 10.883z" fill="#134020" stroke="url(#m)" stroke-miterlimit="10" stroke-width="2"/><path d="m163.105 210.827c3.006 0 5.443-2.435 5.443-5.439 0-3.003-2.437-5.439-5.443-5.439-3.005 0-5.442 2.436-5.442 5.439 0 3.004 2.437 5.439 5.442 5.439z" fill="#005619"/><path d="m166.458 206.846c3.255 0 5.895-2.638 5.895-5.891 0-3.254-2.64-5.892-5.895-5.892-3.256 0-5.895 2.638-5.895 5.892 0 3.253 2.639 5.891 5.895 5.891z" fill="#fff" opacity=".34"/><path d="m170.28 212.807c1.503 0 2.721-1.217 2.721-2.719s-1.218-2.72-2.721-2.72c-1.502 0-2.721 1.218-2.721 2.72s1.219 2.719 2.721 2.719z" fill="#fff" opacity=".59"/><path d="m165.578 214.787c1.094 0 1.981-.886 1.981-1.98 0-1.093-.887-1.98-1.981-1.98s-1.981.887-1.981 1.98c0 1.094.887 1.98 1.981 1.98z" fill="#4eff86"/><path d="m134.951 186.676c1.511-5.817 1.554-10.84.097-11.218s-3.862 4.032-5.373 9.849c-1.511 5.818-1.555 10.84-.098 11.218s3.863-4.032 5.374-9.849z" fill="#163629"/><path d="m133.632 186.334c.755-2.908.777-5.418.048-5.607-.728-.189-1.931 2.015-2.686 4.923-.755 2.907-.777 5.417-.048 5.606.728.189 1.931-2.015 2.686-4.922z" fill="#163629"/><path d="m135.667 182.279c.818-3.15.842-5.869.053-6.073-.789-.205-2.092 2.182-2.91 5.332-.818 3.149-.841 5.868-.052 6.073s2.092-2.183 2.909-5.332z" fill="#163629"/><path d="m133.529 191.161c.377-1.454.389-2.709.026-2.803s-.963 1.008-1.341 2.462c-.377 1.453-.389 2.708-.026 2.802.363.095.963-1.008 1.341-2.461z" fill="#163629"/><path d="m131.527 193.449c.275-1.058.282-1.972.017-2.041s-.703.734-.978 1.792-.283 1.972-.017 2.041c.265.069.703-.733.978-1.792z" fill="#163629"/><path d="m134.951 186.676c1.511-5.817 1.554-10.84.097-11.218s-3.862 4.032-5.373 9.849c-1.511 5.818-1.555 10.84-.098 11.218s3.863-4.032 5.374-9.849z" fill="#134020" stroke="url(#n)" stroke-miterlimit="10" stroke-width="2"/><path d="m133.632 186.334c.755-2.908.777-5.418.048-5.607-.728-.189-1.931 2.015-2.686 4.923-.755 2.907-.777 5.417-.048 5.606.728.189 1.931-2.015 2.686-4.922z" fill="#005619"/><path d="m135.667 182.279c.818-3.15.842-5.869.053-6.073-.789-.205-2.092 2.182-2.91 5.332-.818 3.149-.841 5.868-.052 6.073s2.092-2.183 2.909-5.332z" fill="#fff" opacity=".34"/><path d="m133.529 191.161c.377-1.454.389-2.709.026-2.803s-.963 1.008-1.341 2.462c-.377 1.453-.389 2.708-.026 2.802.363.095.963-1.008 1.341-2.461z" fill="#fff" opacity=".59"/><path d="m131.527 193.449c.275-1.058.282-1.972.017-2.041s-.703.734-.978 1.792-.283 1.972-.017 2.041c.265.069.703-.733.978-1.792z" fill="#4eff86"/><path d="m133.739 215.144s.945 22.926 7.254 1.74c.37-.87 0-3.811-1.115-2.175-2.839 4.155-4.693 2.432-5.394-2.176-.296-1.949-1.115.435-.745 2.611z" fill="#142e22"/><path d="m280.55 168.732c0 51.641-41.64 93.5-93 93.5s-93.0004-41.859-93.0004-93.5 41.6404-93.5003 93.0004-93.5003 93 41.8593 93 93.5003z" fill="url(#p)" stroke="url(#r)"/><path d="m221.254 266.124c0-1.287-.83-2.603-2.548-3.88-1.709-1.27-4.213-2.434-7.353-3.421-6.273-1.971-14.97-3.199-24.599-3.199-9.628 0-18.325 1.228-24.599 3.199-3.139.987-5.643 2.151-7.352 3.421-1.718 1.277-2.549 2.593-2.549 3.88s.831 2.604 2.549 3.881c1.709 1.269 4.213 2.434 7.352 3.42 6.274 1.972 14.971 3.199 24.599 3.199 9.629 0 18.326-1.227 24.599-3.199 3.14-.986 5.644-2.151 7.353-3.42 1.718-1.277 2.548-2.594 2.548-3.881z" fill="url(#s)" stroke="url(#t)"/><path d="m221.254 275.124c0-1.287-.83-2.603-2.548-3.88-1.709-1.27-4.213-2.434-7.353-3.421-6.273-1.971-14.97-3.199-24.599-3.199-9.628 0-18.325 1.228-24.599 3.199-3.139.987-5.643 2.151-7.352 3.421-1.718 1.277-2.549 2.593-2.549 3.88s.831 2.604 2.549 3.881c1.709 1.269 4.213 2.434 7.352 3.42 6.274 1.972 14.971 3.199 24.599 3.199 9.629 0 18.326-1.227 24.599-3.199 3.14-.986 5.644-2.151 7.353-3.42 1.718-1.277 2.548-2.594 2.548-3.881z" fill="url(#u)" stroke="url(#v)"/><path d="m143.448 141.483c-24.865-11.16-22.597-29.124-18.355-36.711-12.589 8.647-36.4856 37.092-23.509 96.134 13.709 62.379 112.343 70.991 152.689 28.135 29.137-30.951 24.707-79.4 13.193-101.469 4.242 12.808 8.483 32.707-11.684 13.911-25.208-23.495-81.252 13.95-112.334 0z" fill="url(#w)"/><g fill="#d9d9d9"><circle cx="206.715" cy="179.879" r="1" transform="matrix(-.95181945 .30665898 -.30665898 -.95181945 458.631869 287.70032)"/><circle cx="241.213" cy="209.908" r="1" transform="matrix(-.95181945 .30665898 -.30665898 -.95181945 535.174399 335.732385)"/><circle cx="171.038" cy="130.47" r="1" transform="matrix(-.95181945 .30665898 -.30665898 -.95181945 373.845093 202.203545)"/><circle cx="133.403" cy="195.564" opacity=".4" r="1" transform="matrix(-.95181945 .30665898 -.30665898 -.95181945 320.350027 340.796391)"/><circle cx="128.893" cy="215.811" opacity=".4" r="1" transform="matrix(-.95181945 .30665898 -.30665898 -.95181945 317.756246 381.697912)"/><circle cx="152.58" cy="207.357" opacity=".4" r="1" transform="matrix(-.95181945 .30665898 -.30665898 -.95181945 361.396498 357.933399)"/><circle cx="154.055" cy="180.62" opacity=".4" r="1" transform="matrix(-.95181945 .30665898 -.30665898 -.95181945 356.076291 305.29528)"/><circle cx="176.641" cy="189.936" opacity=".4" r="1" transform="matrix(-.95181945 .30665898 -.30665898 -.95181945 403.01692 316.552231)"/><circle cx="103.591" cy="198.069" opacity=".4" r="1" transform="matrix(-.95181945 .30665898 -.30665898 -.95181945 262.930566 354.827817)"/><circle cx="140.691" cy="168.608" opacity=".4" r="1" transform="matrix(-.95181945 .30665898 -.30665898 -.95181945 326.308588 285.948216)"/><circle cx="155.3" cy="226.85" opacity=".4" r="1" transform="matrix(-.95181945 .30665898 -.30665898 -.95181945 372.683151 395.146103)"/><circle cx="163.256" cy="202.727" opacity=".4" r="1" transform="matrix(-.95181945 .30665898 -.30665898 -.95181945 380.814292 345.622584)"/><circle cx="296.398" cy="215.322" opacity=".4" r="1" transform="matrix(-.95181945 .30665898 -.30665898 -.95181945 644.545807 329.37656)"/><circle cx="263.151" cy="171.365" r="1" transform="matrix(-.95181945 .30665898 -.30665898 -.95181945 566.173857 253.775923)"/><circle cx="180.63" cy="224.489" r="1" transform="matrix(-.95181945 .30665898 -.30665898 -.95181945 421.398715 382.770185)"/><circle cx="188.406" cy="202.596" r="1" transform="matrix(-.95181945 .30665898 -.30665898 -.95181945 429.862378 337.654422)"/></g><path d="m229.761 187.572c-7.459 2.22-14.888 8.461-17.67 11.304 3.839 5.389 22.36 6.203 19.593.454-2.766-5.75 7.402-14.533-1.923-11.758z" fill="url(#y)"/><path d="m219.209 218.348c-3.932-1.879-7.297-5.307-8.488-6.786 2.916-1.559 13.544.659 11.187 2.503s2.216 6.63-2.699 4.283z" fill="url(#z)"/><path d="m232.875 216.344c-2.806-.002-5.792-1.167-6.934-1.75 1.135-1.884 7.804-3.706 7.074-1.809s3.369 3.561-.14 3.559z" fill="url(#A)"/><path d="m249.61 197.654c1.192-2.033-8.569 4.567-13.598 8.121-4.504 2.118-8.41-1.18-.58 4.126s10.397 7.77 8.885 1.247c-1.511-6.522 3.804-10.953 5.293-13.494z" fill="url(#B)"/><path d="m238.023 207.619c-.763 5.433-9.089 8.755-18.597 7.42-9.507-1.335-16.596-6.821-15.833-12.254.762-5.433 9.088-8.755 18.596-7.42 9.507 1.335 16.596 6.822 15.834 12.254z" fill="url(#C)"/><path d="m210.019 205.947c2.195.308 4.223-1.221 4.531-3.414s-1.221-4.221-3.416-4.529c-2.194-.308-4.223 1.22-4.531 3.413s1.221 4.221 3.416 4.53z" fill="#163629"/><path d="m210.298 203.96c1.097.154 2.111-.61 2.265-1.706s-.611-2.11-1.708-2.264c-1.096-.154-2.11.61-2.264 1.706-.154 1.097.61 2.11 1.707 2.264z" fill="#163629"/><path d="m211.726 202.679c1.188.167 2.286-.661 2.453-1.848.166-1.187-.662-2.285-1.85-2.452s-2.286.66-2.453 1.848c-.167 1.187.661 2.285 1.85 2.452z" fill="#163629"/><path d="m212.815 205.05c.548.077 1.055-.305 1.132-.853s-.305-1.055-.853-1.132c-.549-.077-1.056.305-1.133.853s.305 1.055.854 1.132z" fill="#163629"/><path d="m210.998 205.532c.399.056.768-.222.824-.621s-.222-.768-.622-.824c-.399-.056-.768.222-.824.621s.222.768.622.824z" fill="#163629"/><path d="m210.019 205.947c2.195.308 4.223-1.22 4.531-3.414.308-2.193-1.221-4.221-3.416-4.529-2.194-.308-4.223 1.22-4.531 3.413-.308 2.194 1.221 4.221 3.416 4.53z" fill="#0ff"/><path clip-rule="evenodd" d="m211.112 198.163c-2.107-.296-4.055 1.171-4.35 3.277-.296 2.105 1.172 4.052 3.279 4.348s4.055-1.171 4.351-3.277c.295-2.106-1.173-4.053-3.28-4.348zm-4.668 3.232c.321-2.281 2.43-3.87 4.713-3.55 2.282.321 3.872 2.43 3.552 4.711s-2.43 3.87-4.712 3.549c-2.282-.32-3.873-2.429-3.553-4.71z" fill="url(#D)" fill-rule="evenodd"/><path d="m210.298 203.96c1.097.154 2.111-.61 2.265-1.706s-.611-2.11-1.708-2.264c-1.096-.154-2.11.61-2.264 1.706-.154 1.097.61 2.11 1.707 2.264z" fill="#005619"/><path d="m211.403 202.978c1.188.167 2.286-.66 2.453-1.847.167-1.188-.661-2.286-1.85-2.453-1.188-.166-2.286.661-2.453 1.848-.167 1.188.661 2.286 1.85 2.452z" fill="#fff" opacity=".77"/><path d="m212.44 204.803c.548.077 1.055-.305 1.132-.853s-.305-1.054-.854-1.132c-.548-.077-1.055.305-1.132.853-.077.549.305 1.055.854 1.132z" fill="#fff"/><path d="m210.998 205.532c.399.056.768-.222.824-.621s-.222-.768-.622-.824c-.399-.056-.768.222-.824.621s.222.768.622.824z" fill="#fff"/><path d="m220.415 211.457c-3.538-5.917-3.404-13.691-1.263-16.357.462-.124 4.226.092 7.741 1.33-6.1.519-5.52 13.099-6.478 15.027z" fill="#fff" fill-opacity=".33"/><path d="m213.375 207.317c-2.865.44-4.691 2.484-4.468 3.827.157.173 1.735 1.271 3.46 2.029-2.348-2.003.93-5.066 1.008-5.856z" fill="#fff" fill-opacity=".33"/><path d="m227.369 208.032c-.898-4.369.985-9.051 2.861-10.223.309.023 2.419.92 4.302 2.425-3.836-.984-6.166 6.824-7.163 7.798z" fill="#fff" fill-opacity=".33"/></svg>