<?xml version="1.0" encoding="UTF-8"?> <svg xmlns="http://www.w3.org/2000/svg" width="23" height="23" viewBox="0 0 23 23" fill="none"><path fill-rule="evenodd" clip-rule="evenodd" d="M10.9506 16.9273C10.9902 16.931 11.0206 16.964 11.0206 17.0037V18.4484C11.0206 18.7052 11.2288 18.9134 11.4856 18.9134C11.7425 18.9134 11.9506 18.7052 11.9506 18.4484V17.0187C11.9506 16.979 11.9811 16.946 12.0206 16.9422C12.9578 16.8528 13.7044 16.5349 14.2606 15.9884C14.8406 15.4184 15.1306 14.6984 15.1306 13.8284C15.1306 12.9984 14.9006 12.3034 14.4406 11.7434C14.0741 11.2893 13.5775 10.9462 12.9506 10.7142C12.8672 10.6833 12.7814 10.6544 12.6933 10.6275C12.6127 10.6028 12.5301 10.5798 12.4456 10.5584C12.1534 10.4787 11.9506 10.2133 11.9506 9.91035V7.46491C11.9506 7.42778 11.9844 7.39976 12.0206 7.40787C12.3561 7.48298 12.6128 7.62816 12.7906 7.84343C12.854 7.91631 12.9073 7.99571 12.9506 8.08165C13.1166 8.41106 13.3897 8.72843 13.7585 8.72843H14.0226C14.5416 8.72843 14.9806 8.29511 14.8304 7.7983C14.8233 7.77484 14.816 7.75155 14.8083 7.72843C14.673 7.31911 14.4504 6.96245 14.1406 6.65843C13.6144 6.1322 12.9077 5.82438 12.0206 5.73499C11.9811 5.73101 11.9506 5.6979 11.9506 5.65812V4.22843C11.9506 3.97162 11.7425 3.76343 11.4856 3.76343C11.2288 3.76343 11.0206 3.97161 11.0206 4.22843V5.67311C11.0206 5.71291 10.9902 5.74603 10.9506 5.75008C10.0736 5.83982 9.37697 6.15261 8.86064 6.68843C8.33064 7.22843 8.06564 7.92343 8.06564 8.77343C8.06564 9.58343 8.29564 10.2734 8.75564 10.8434C9.08281 11.2402 9.50448 11.5522 10.0206 11.7794C10.1822 11.8505 10.3529 11.9133 10.533 11.9677C10.6041 11.9893 10.6766 12.0095 10.7506 12.0284C10.9102 12.0728 11.0206 12.218 11.0206 12.3837V15.2119C11.0206 15.249 10.9868 15.2769 10.9506 15.2688C10.574 15.1847 10.2774 15.0296 10.0606 14.8034C10.0469 14.7885 10.0336 14.7733 10.0206 14.758C10.0155 14.7519 10.0105 14.7458 10.0055 14.7396C9.68127 14.3398 9.29832 13.8734 8.78353 13.8734C8.26454 13.8734 7.82636 14.3062 7.97351 14.8039C7.98041 14.8272 7.98758 14.8504 7.99502 14.8734C8.13438 15.3049 8.36792 15.6816 8.69564 16.0034C9.252 16.5305 10.0037 16.8385 10.9506 16.9273ZM11.0206 7.46507C11.0206 7.42801 10.9867 7.40015 10.9506 7.40868C10.6344 7.48341 10.3878 7.62333 10.2106 7.82843C10.1286 7.92412 10.0653 8.03434 10.0206 8.1591C9.9673 8.30814 9.94064 8.47791 9.94064 8.66843C9.94064 8.85817 9.9673 9.03457 10.0206 9.19764C10.0938 9.42132 10.2171 9.61992 10.3906 9.79343C10.4565 9.85507 10.5278 9.91061 10.6046 9.96005C10.7097 10.0278 10.8251 10.0841 10.9506 10.129C10.9851 10.1413 11.0206 10.1152 11.0206 10.0786V7.46507ZM11.9506 15.2275C11.9506 15.2649 11.9838 15.2936 12.0206 15.2872C12.3972 15.2208 12.6939 15.0746 12.9106 14.8484C12.9244 14.8335 12.9377 14.8183 12.9506 14.8029C13.154 14.5605 13.2556 14.2607 13.2556 13.9034C13.2556 13.5471 13.154 13.2399 12.9506 12.982C12.9029 12.9214 12.8496 12.8636 12.7906 12.8084C12.7166 12.7392 12.636 12.6773 12.5489 12.6229C12.3936 12.5259 12.2175 12.4525 12.0206 12.4026C11.9848 12.3935 11.9506 12.421 11.9506 12.458V15.2275Z" fill="url(#paint0_linear_633_3378)"></path><circle cx="11.4856" cy="11.345" r="10.6163" stroke="url(#paint1_linear_633_3378)"></circle><defs><linearGradient id="paint0_linear_633_3378" x1="8.33384" y1="-16.6095" x2="26.4538" y2="-11.7349" gradientUnits="userSpaceOnUse"><stop stop-color="#00FFE0"></stop><stop offset="1" stop-color="#DB00FF"></stop></linearGradient><linearGradient id="paint1_linear_633_3378" x1="3.69982" y1="-1.81988" x2="19.3935" y2="20.6972" gradientUnits="userSpaceOnUse"><stop stop-color="#00FFE0"></stop><stop offset="1" stop-color="#DB00FF"></stop></linearGradient></defs></svg> 