<svg xmlns="http://www.w3.org/2000/svg" width="247" height="64" viewBox="0 0 247 64" fill="none"><path fill-rule="evenodd" clip-rule="evenodd" d="M223.015 28.3761C223.519 27.7162 224.207 27.1801 225.077 26.7676C225.964 26.3387 226.947 26.1242 228.026 26.1242C229.297 26.1242 230.445 26.4129 231.472 26.9904C232.499 27.5678 233.308 28.3926 233.899 29.465C234.491 30.5208 234.787 31.7334 234.787 33.1027C234.787 34.472 234.491 35.701 233.899 36.7898C233.308 37.8622 232.49 38.7036 231.446 39.314C230.419 39.9079 229.279 40.2048 228.026 40.2048C226.913 40.2048 225.921 39.9986 225.051 39.5862C224.198 39.1737 223.519 38.6458 223.015 38.0024V39.9821H220.039V21.6699H223.015V28.3761ZM231.759 33.1027C231.759 32.1623 231.55 31.3539 231.133 30.6775C230.732 29.9846 230.193 29.465 229.514 29.1185C228.853 28.7556 228.139 28.5741 227.374 28.5741C226.626 28.5741 225.912 28.7556 225.233 29.1185C224.572 29.4815 224.033 30.0094 223.615 30.7023C223.215 31.3952 223.015 32.2118 223.015 33.1522C223.015 34.0925 223.215 34.9174 223.615 35.6268C224.033 36.3197 224.572 36.8476 225.233 37.2105C225.912 37.5735 226.626 37.7549 227.374 37.7549C228.139 37.7549 228.853 37.5735 229.514 37.2105C230.193 36.8311 230.732 36.2867 231.133 35.5773C231.55 34.8679 231.759 34.043 231.759 33.1027ZM203.314 37.7056H196.027V22.7836H193.051V39.9822H203.314V37.7056ZM204.202 29.465C203.61 30.5208 203.314 31.7334 203.314 33.1027C203.314 34.472 203.61 35.701 204.202 36.7898C204.811 37.8622 205.629 38.7036 206.655 39.314C207.682 39.9079 208.813 40.2048 210.049 40.2048C211.162 40.2048 212.154 39.9904 213.024 39.5614C213.894 39.1325 214.582 38.5963 215.086 37.9529V39.9821H218.088V26.347H215.086V28.3266C214.582 27.6997 213.903 27.1801 213.05 26.7676C212.215 26.3387 211.232 26.1242 210.101 26.1242C208.848 26.1242 207.699 26.4212 206.655 27.0151C205.629 27.5925 204.811 28.4091 204.202 29.465ZM214.46 30.7023C214.878 31.3952 215.086 32.2118 215.086 33.1522C215.086 34.0925 214.878 34.9174 214.46 35.6268C214.06 36.3197 213.529 36.8476 212.868 37.2105C212.207 37.5735 211.493 37.7549 210.727 37.7549C209.979 37.7549 209.266 37.5735 208.587 37.2105C207.926 36.8311 207.386 36.2867 206.969 35.5773C206.568 34.8679 206.368 34.043 206.368 33.1027C206.368 32.1623 206.568 31.3539 206.969 30.6775C207.386 29.9846 207.926 29.465 208.587 29.1185C209.248 28.7556 209.962 28.5741 210.727 28.5741C211.493 28.5741 212.207 28.7556 212.868 29.1185C213.529 29.4815 214.06 30.0094 214.46 30.7023ZM237.938 39.6357C238.843 40.0151 239.861 40.2048 240.992 40.2048C242.106 40.2048 243.072 40.0316 243.89 39.6852C244.725 39.3387 245.369 38.8603 245.821 38.2499C246.274 37.6395 246.5 36.9466 246.5 36.1712C246.483 35.2968 246.23 34.5957 245.743 34.0678C245.256 33.5398 244.673 33.1439 243.994 32.88C243.333 32.5995 242.48 32.3273 241.436 32.0633C240.653 31.8489 240.061 31.6756 239.661 31.5437C239.261 31.3952 238.922 31.1972 238.643 30.9497C238.365 30.7023 238.225 30.3971 238.225 30.0341C238.225 29.5722 238.434 29.201 238.852 28.9206C239.27 28.6401 239.87 28.4999 240.653 28.4999C241.453 28.4999 242.089 28.6813 242.558 29.0443C243.028 29.4072 243.289 29.8939 243.342 30.5043H246.317C246.248 29.1515 245.708 28.0874 244.699 27.3121C243.707 26.5202 242.393 26.1242 240.757 26.1242C239.661 26.1242 238.687 26.2975 237.834 26.6439C236.999 26.9904 236.355 27.4688 235.902 28.0792C235.45 28.6731 235.224 29.333 235.224 30.0589C235.224 30.9497 235.467 31.6674 235.955 32.2118C236.459 32.7562 237.051 33.1604 237.73 33.4244C238.408 33.6883 239.287 33.9605 240.366 34.241C241.48 34.5379 242.289 34.8102 242.793 35.0576C243.315 35.3051 243.576 35.6845 243.576 36.1959C243.576 36.6744 243.342 37.0703 242.872 37.3838C242.419 37.6807 241.775 37.8292 240.94 37.8292C240.14 37.8292 239.47 37.6395 238.93 37.26C238.408 36.8641 238.121 36.3774 238.069 35.8H234.989C235.024 36.6249 235.302 37.3755 235.824 38.0519C236.346 38.7118 237.051 39.2397 237.938 39.6357ZM155.341 40.0253L148.685 33.1935L155.341 26.3368H151.2L145.959 32.324V22.7295H142.972V40.0253H145.959V34.1375L151.305 40.0253H155.341ZM106.42 32.2991L113.469 40.0253H117.373L109.328 31.4048L117.242 22.7594H113.495L106.42 30.6346V22.7594H103.432V40.0253H106.42V32.2991ZM123.241 26.7094C122.525 27.0904 121.948 27.6286 121.511 28.3242V26.3368H118.524V40.0253H121.511V32.8208C121.511 31.4296 121.808 30.4524 122.402 29.8893C123.014 29.3262 123.905 29.0447 125.075 29.0447H125.835V26.1132C124.839 26.1132 123.975 26.3119 123.241 26.7094ZM126.094 33.1189C126.094 31.7443 126.391 30.527 126.985 29.467C127.597 28.407 128.418 27.5872 129.448 27.0075C130.497 26.4113 131.65 26.1132 132.907 26.1132C134.043 26.1132 135.03 26.3285 135.869 26.7591C136.725 27.1732 137.406 27.6949 137.913 28.3242V26.3368H140.926V40.0253H137.913V37.9882C137.406 38.6341 136.716 39.1724 135.842 39.603C134.969 40.0336 133.973 40.2489 132.855 40.2489C131.615 40.2489 130.479 39.9508 129.448 39.3545C128.418 38.7418 127.597 37.8971 126.985 36.8205C126.391 35.7275 126.094 34.4936 126.094 33.1189ZM137.913 33.1686C137.913 32.2246 137.703 31.4048 137.284 30.7092C136.882 30.0136 136.349 29.4836 135.685 29.1192C135.021 28.7548 134.305 28.5727 133.536 28.5727C132.768 28.5727 132.051 28.7548 131.388 29.1192C130.724 29.467 130.182 29.9887 129.763 30.6843C129.361 31.3634 129.16 32.1749 129.16 33.1189C129.16 34.063 129.361 34.8911 129.763 35.6032C130.182 36.3154 130.724 36.862 131.388 37.2429C132.069 37.6073 132.785 37.7894 133.536 37.7894C134.305 37.7894 135.021 37.6073 135.685 37.2429C136.349 36.8785 136.882 36.3485 137.284 35.6529C137.703 34.9408 137.913 34.1127 137.913 33.1686ZM168.908 32.8457C168.908 33.3591 168.873 33.8228 168.803 34.2369H157.771C157.858 35.33 158.286 36.2078 159.055 36.8702C159.823 37.5327 160.767 37.864 161.885 37.864C163.492 37.864 164.628 37.2263 165.291 35.951H168.515C168.078 37.2098 167.283 38.2449 166.13 39.0564C164.994 39.8514 163.579 40.2489 161.885 40.2489C160.505 40.2489 159.264 39.9591 158.164 39.3794C157.081 38.7832 156.225 37.9551 155.596 36.8951C154.984 35.8185 154.679 34.5764 154.679 33.1686C154.679 31.7609 154.976 30.527 155.57 29.467C156.181 28.3905 157.028 27.5624 158.111 26.9827C159.212 26.403 160.47 26.1132 161.885 26.1132C163.247 26.1132 164.462 26.3948 165.527 26.9579C166.593 27.521 167.423 28.3159 168.017 29.3428C168.611 30.3531 168.908 31.5207 168.908 32.8457ZM165.789 31.9513C165.772 30.9079 165.379 30.0715 164.61 29.4422C163.841 28.8128 162.889 28.4981 161.754 28.4981C160.723 28.4981 159.841 28.8128 159.107 29.4422C158.373 30.055 157.937 30.8913 157.797 31.9513H165.789ZM181.068 26.784C180.177 26.3368 179.164 26.1132 178.028 26.1132C177.172 26.1132 176.36 26.2705 175.591 26.5852C174.84 26.8999 174.22 27.3388 173.731 27.9019V26.3368H170.743V40.0253H173.731V32.3736C173.731 31.1481 174.054 30.2123 174.7 29.5664C175.364 28.9039 176.255 28.5727 177.373 28.5727C178.491 28.5727 179.373 28.9039 180.02 29.5664C180.666 30.2123 180.989 31.1481 180.989 32.3736V40.0253H183.95V31.9513C183.95 30.7092 183.697 29.6492 183.19 28.7714C182.684 27.8936 181.976 27.2311 181.068 26.784ZM88.0254 26.3379C88.453 26.7404 88.9823 26.9417 89.6134 26.9417C90.2241 26.9417 90.7432 26.7404 91.1707 26.3379C91.5983 25.9354 91.812 25.437 91.812 24.8428C91.812 24.2486 91.5983 23.7502 91.1707 23.3477C90.7432 22.9452 90.2241 22.7439 89.6134 22.7439C88.9823 22.7439 88.453 22.9452 88.0254 23.3477C87.5979 23.7502 87.3842 24.2486 87.3842 24.8428C87.3842 25.437 87.5979 25.9354 88.0254 26.3379ZM81.5716 27.7132C81.1022 26.8562 80.4503 26.2134 79.6158 25.7849C78.7813 25.3399 77.8165 25.1174 76.7212 25.1174C75.5217 25.1174 74.4525 25.3729 73.5138 25.8838C72.575 26.3947 71.8361 27.1199 71.2972 28.0594C70.7757 28.9988 70.5149 30.0866 70.5149 31.3227C70.5149 32.5588 70.7757 33.6548 71.2972 34.6107C71.8361 35.5502 72.575 36.2754 73.5138 36.7863C74.4525 37.2972 75.5217 37.5527 76.7212 37.5527C78.338 37.5527 79.6506 37.1242 80.6589 36.2671C81.6672 35.4101 82.2844 34.2481 82.5104 32.7813H75.7042V30.5316H85.6918C85.6918 30.5316 85.7844 31.1885 85.7844 31.6888C85.7844 32.1173 85.6918 32.7319 85.6918 32.7319C85.5005 34.0669 84.9964 35.2947 84.1793 36.4155C83.3796 37.5362 82.3278 38.4344 81.024 39.1102C79.7375 39.7694 78.3033 40.0991 76.7212 40.0991C75.0175 40.0991 73.4616 39.7282 72.0534 38.9866C70.6453 38.2284 69.524 37.1819 68.6895 35.8469C67.8724 34.5119 67.4639 33.0038 67.4639 31.3227C67.4639 29.6416 67.8724 28.1335 68.6895 26.7985C69.524 25.4635 70.6453 24.4252 72.0534 23.6835C73.479 22.9254 75.0349 22.5463 76.7212 22.5463C78.6509 22.5463 80.3633 22.9995 81.8584 23.906C83.3709 24.796 84.4661 26.0651 85.1441 27.7132H81.5716ZM91.0751 28.7516V39.9507H88.1023V28.7516H91.0751ZM97.9248 36.1682V28.628H101.419V26.3288H97.9248V22.7585H94.9259V26.3288H93.2309V28.628H94.9259V36.1682C94.9259 37.5032 95.2823 38.4674 95.9951 39.0607C96.7079 39.6541 97.7336 39.9507 99.0722 39.9507H101.419V37.6021H99.5937C98.9853 37.6021 98.5506 37.495 98.2899 37.2807C98.0465 37.05 97.9248 36.6792 97.9248 36.1682Z" fill="#EBF0FF"></path><path fill-rule="evenodd" clip-rule="evenodd" d="M53.4486 42.3965C47.2457 52.582 33.5077 56.0718 22.7639 50.1912C12.0201 44.3106 8.33903 31.2864 14.542 21.1008C20.7449 10.9153 34.4829 7.42544 45.2266 13.3061C55.9704 19.1867 59.6515 32.2109 53.4486 42.3965ZM55.2171 43.3644C48.4502 54.4759 33.4633 58.283 21.7429 51.8678C10.0224 45.4526 6.00665 31.2443 12.7735 20.1328C19.5403 9.02133 34.5272 5.21424 46.2477 11.6295C57.9681 18.0447 61.9839 32.2529 55.2171 43.3644ZM21.8083 33.3405C21.9521 33.138 22.1041 32.9345 22.2642 32.7305C23.3386 33.9239 24.6542 35.108 26.1703 36.225C26.4327 38.0284 26.8565 39.7007 27.4096 41.1796C27.1432 41.2091 26.8813 41.2322 26.6245 41.2489C23.3959 41.4591 21.3182 40.662 20.5048 39.3263C19.6913 37.9905 20.002 35.8862 21.8083 33.3405ZM19.6017 39.8206C18.3579 37.7782 19.2206 34.8684 21.5881 31.9389C19.22 29.0091 18.3571 26.0988 19.601 24.0563C20.8448 22.0137 23.9347 21.2671 27.795 21.7464C29.2873 18.3379 31.5141 16.1746 34.0017 16.1746C36.4892 16.1746 38.716 18.3379 40.2084 21.7465C44.0688 21.2671 47.1588 22.0137 48.4027 24.0563C49.6466 26.0988 48.7836 29.0091 46.4156 31.9389C48.7831 34.8684 49.6458 37.7782 48.402 39.8206C47.1582 41.8629 44.0687 42.6096 40.2088 42.1305C38.7164 45.5396 36.4895 47.7033 34.0017 47.7033C31.5139 47.7033 29.287 45.5396 27.7946 42.1305C23.9349 42.6095 20.8455 41.8629 19.6017 39.8206ZM26.0022 34.8272C24.8152 33.8866 23.7815 32.9114 22.9239 31.9388C23.7815 30.9662 24.8152 29.9909 26.0023 29.0502C25.9128 29.9867 25.866 30.9522 25.866 31.9389C25.866 32.9255 25.9128 33.8909 26.0022 34.8272ZM22.2642 31.1472C23.3385 29.9537 24.6542 28.7695 26.1704 27.6523C26.4328 25.8487 26.8567 24.1763 27.4099 22.6973C27.1431 22.6678 26.8809 22.6447 26.6237 22.6279C23.3951 22.4177 21.3175 23.2148 20.504 24.5505C19.6905 25.8863 20.0013 27.9907 21.8076 30.5363C21.9515 30.7392 22.1038 30.9429 22.2642 31.1472ZM26.9088 31.9389C26.9088 30.64 26.9923 29.3833 27.1482 28.1875C28.1627 27.4615 29.269 26.7645 30.4558 26.1149C31.6422 25.4655 32.8318 24.9058 34.0018 24.436C35.1719 24.9058 36.3615 25.4655 37.5479 26.1149C38.7346 26.7644 39.8408 27.4614 40.8552 28.1872C41.0111 29.3831 41.0946 30.6399 41.0946 31.9389C41.0946 33.2378 41.0111 34.4944 40.8552 35.6901C39.841 36.4158 38.735 37.1126 37.5487 37.7619C36.362 38.4114 35.1722 38.9712 34.0018 39.4412C32.8315 38.9712 31.6417 38.4114 30.455 37.7619C29.2685 37.1125 28.1624 36.4156 27.1481 35.6898C26.9923 34.4942 26.9088 33.2377 26.9088 31.9389ZM29.9344 25.2588C30.8356 24.7655 31.7409 24.3212 32.6409 23.9265C31.1881 23.4222 29.7802 23.061 28.4629 22.8431C28.0031 24.0337 27.6291 25.3702 27.3632 26.8153C28.1741 26.2735 29.0329 25.7522 29.9344 25.2588ZM38.0693 25.2588C37.1681 24.7655 36.2628 24.3212 35.3627 23.9265C36.8155 23.4222 38.2232 23.061 39.5405 22.8432C40.0002 24.0337 40.3742 25.3701 40.6401 26.8151C39.8293 26.2733 38.9707 25.7522 38.0693 25.2588ZM34.0018 23.3656C35.7803 22.6793 37.5198 22.1911 39.1472 21.9058C39.0409 21.6723 38.931 21.4457 38.8178 21.2263C37.3956 18.4705 35.6286 17.1632 34.0017 17.1632C32.3747 17.1632 30.6078 18.4705 29.1855 21.2263C29.0724 21.4456 28.9625 21.6722 28.8562 21.9057C30.4837 22.1911 32.2232 22.6793 34.0018 23.3656ZM41.8329 27.652C41.5705 25.8486 41.1466 24.1762 40.5935 22.6974C40.8604 22.6678 41.1227 22.6447 41.38 22.6279C44.6086 22.4177 46.6862 23.2148 47.4997 24.5505C48.3132 25.8863 48.0024 27.9907 46.1961 30.5363C46.0522 30.7392 45.8999 30.9429 45.7395 31.1472C44.6651 29.9536 43.3493 28.7693 41.8329 27.652ZM42.001 29.0499C43.1882 29.9907 44.2221 30.9661 45.0798 31.9388C44.2221 32.9115 43.1882 33.8868 42.0011 34.8275C42.0906 33.8911 42.1374 32.9256 42.1374 31.9389C42.1374 30.9521 42.0906 29.9865 42.001 29.0499ZM38.0701 38.618C38.9712 38.1248 39.8296 37.6038 40.6402 37.0622C40.3744 38.507 40.0005 39.8434 39.5408 41.0338C38.2235 40.816 36.8157 40.4549 35.3628 39.9506C36.2631 39.5558 37.1686 39.1114 38.0701 38.618ZM29.9336 38.618C30.8351 39.1114 31.7406 39.5558 32.6409 39.9506C31.1879 40.4549 29.7799 40.8161 28.4625 41.0339C28.0029 39.8434 27.6289 38.5069 27.3631 37.0619C28.1738 37.6036 29.0324 38.1247 29.9336 38.618ZM34.0018 40.5115C32.2231 41.1979 30.4834 41.686 28.8558 41.9713C28.9622 42.2051 29.0722 42.432 29.1855 42.6515C30.6078 45.4074 32.3747 46.7147 34.0017 46.7147C35.6286 46.7147 37.3956 45.4074 38.8178 42.6515C38.9311 42.4319 39.0411 42.2051 39.1476 41.9712C37.5201 41.686 35.7805 41.1978 34.0018 40.5115ZM45.7395 32.7305C44.665 33.924 43.3493 35.1082 41.833 36.2253C41.5707 38.0286 41.1469 39.7008 40.5938 41.1796C40.8603 41.2091 41.1223 41.2322 41.3792 41.2489C44.6078 41.4591 46.6855 40.662 47.4989 39.3263C48.3124 37.9905 48.0017 35.8862 46.1954 33.3405C46.0516 33.138 45.8996 32.9345 45.7395 32.7305Z" fill="url(#paint0_linear_472_5805)"></path><defs><linearGradient id="paint0_linear_472_5805" x1="29.3458" y1="2.37819" x2="46.635" y2="50.1822" gradientUnits="userSpaceOnUse"><stop stop-color="#BFECFF"></stop><stop offset="1" stop-color="#53FFAC"></stop></linearGradient></defs></svg>