<svg fill="none" height="151" viewBox="0 0 154 151" width="154" xmlns="http://www.w3.org/2000/svg" xmlns:xlink="http://www.w3.org/1999/xlink"><linearGradient id="a" gradientUnits="userSpaceOnUse" x1="20.6488" x2="63.3988" y1="54.875" y2="48.125"><stop offset="0" stop-color="#1e3d79"/><stop offset="1" stop-color="#0e1118"/></linearGradient><linearGradient id="b"><stop offset="0" stop-color="#e64eff"/><stop offset="1" stop-color="#fffcc3" stop-opacity="0"/></linearGradient><linearGradient id="c" gradientUnits="userSpaceOnUse" x1="3.77381" x2="118.13" xlink:href="#b" y1="129.5" y2="45"/><linearGradient id="d" gradientUnits="userSpaceOnUse" x1="66.8044" x2="57.2029" xlink:href="#b" y1="127.593" y2="112.475"/><linearGradient id="e" gradientUnits="userSpaceOnUse" x1="63.2752" x2="52.8484" xlink:href="#b" y1="129.556" y2="113.139"/><linearGradient id="f" gradientUnits="userSpaceOnUse" x1="54.2269" x2="99.1639" xlink:href="#b" y1="147.178" y2="109.111"/><linearGradient id="g" gradientUnits="userSpaceOnUse" x1="49.1178" x2="112.813" xlink:href="#b" y1="153.156" y2="103.778"/><linearGradient id="h" gradientUnits="userSpaceOnUse" x1="154.109" x2="108.694" xlink:href="#b" y1="40.6047" y2="107.184"/><linearGradient id="i" gradientUnits="userSpaceOnUse" x1="56.8515" x2="32.6226" y1="53.7009" y2="49.7848"><stop offset="0" stop-color="#5c2b9e"/><stop offset="1" stop-color="#cca6ff"/></linearGradient><linearGradient id="j" gradientUnits="userSpaceOnUse" x1="29.0599" x2="56.0096" y1="44.8988" y2="56.0562"><stop offset=".0208333" stop-color="#fff"/><stop offset="1" stop-color="#cca6ff" stop-opacity="0"/></linearGradient><linearGradient id="k" gradientUnits="userSpaceOnUse" x1="-2.5244" x2="81.2305" xlink:href="#b" y1="55.2632" y2="83.6893"/><linearGradient id="l" gradientUnits="userSpaceOnUse" x1=".234962" x2="24.5293" xlink:href="#b" y1="81.3831" y2="93.2963"/><linearGradient id="m" gradientUnits="userSpaceOnUse" x1="72.6015" x2="67.8639" xlink:href="#b" y1="122.445" y2="121.824"/><path clip-rule="evenodd" d="m29.5315 31.046c6.9778-7.4155 35.7139-2.0651 52.8134 14.0246 21.3741 20.1122 25.7561 44.3306 22.9981 47.2617l-5.014 5.3292-5.0152 5.3295c-2.7581 2.931-27.198.03-48.5725-20.0822-17.0992-16.0895-24.1868-44.4466-17.2098-51.8628z" fill="url(#a)" fill-rule="evenodd"/><path d="m29.5315 31.046-.3641-.3427-.3427.3641.3642.3427zm0 0 .3642.3426.3426-.3642-.3641-.3426zm75.8115 61.2863-.364-.3426zm-5.014 5.3292.364.3427zm-71.1401-66.2514.6853-.7283zm53.4987 13.2964c-8.6248-8.1155-20.1673-13.5109-30.4294-15.9491-5.1324-1.2194-9.9657-1.7042-13.9721-1.4098-3.986.293-7.2455 1.365-9.1187 3.3557l.7283.6853c1.6156-1.717 4.5648-2.7571 8.4637-3.0436 3.8785-.2851 8.6063.1828 13.6676 1.3853 10.1252 2.4056 21.5006 7.7302 29.9753 15.7045zm23.0194 47.9685c.464-.4927.709-1.3351.814-2.3382.107-1.0307.076-2.3351-.106-3.8565-.362-3.0456-1.331-7.0167-3.054-11.5148-3.4472-8.9985-9.9263-20.1465-20.6734-30.259l-.6853.7283c10.6273 9.9997 17.0263 21.017 20.4247 29.8884 1.699 4.4369 2.644 8.327 2.995 11.2753.176 1.4755.201 2.7011.104 3.6345-.1.961-.321 1.5165-.547 1.7567zm-5.014 5.3292 5.014-5.3292-.728-.6853-5.0146 5.3292zm-.7286-.6853-5.0148 5.3291.7283.686 5.0151-5.3298zm-5.0148 5.3291c-.226.241-.767.495-1.7201.653-.9258.154-2.1507.204-3.6341.118-2.9642-.171-6.9046-.878-11.4366-2.305-9.0616-2.8523-20.4475-8.5697-31.0748-18.5694l-.6853.7283c10.7471 10.1125 22.2684 15.9018 31.4599 18.7951 4.5945 1.446 8.6171 2.172 11.6791 2.349 1.5296.089 2.8336.041 3.8558-.129.9949-.166 1.8209-.462 2.2844-.954zm-47.8656-20.1034c-8.4746-7.9741-14.4809-19.0046-17.4976-28.9647-1.508-4.9788-2.2626-9.6693-2.2139-13.558.049-3.9091.9077-6.9162 2.5232-8.6333l-.7283-.6852c-1.8731 1.9909-2.7448 5.3096-2.7948 9.306-.0503 4.0169.7275 8.8118 2.2567 13.8604 3.0576 10.0949 9.1447 21.2877 17.7694 29.4031z" fill="url(#c)"/><path d="m87.7422 103.699c4.1179-1.893 13.4508-8.3339 17.8368-18.9562" stroke="url(#d)"/><path d="m86.0127 103.608c4.4719-2.055 14.6063-9.0499 19.3693-20.5852" stroke="url(#e)"/><g fill="#0d1017"><path d="m68.7853 125.184-6.6866-32.9722c.2916-.31.9114-.6198 1.6428-1.0337l20.9299 30.4829 15.8806 22.685-2.7928.437z" stroke="url(#f)"/><path d="m70.5953 124.234-6.6867-32.9725c9.6878 5.6267 19.809 8.1208 23.6586 8.6646l-1.0859 20.7849 16.9527 18.517-2.88 5.243z" stroke="url(#g)"/><path d="m126.545 63.8008-33.3175-4.6698c6.2052 9.3278 9.3105 19.2787 10.0865 23.0882l20.68-2.3475 19.514 15.796 5.058-3.1939z" stroke="url(#h)"/></g><circle cx="55.2295" cy="55.2273" fill="url(#i)" r="9.00894" transform="matrix(.68527579 -.72828367 .72828367 .68527579 -22.839079 57.604111)"/><circle cx="55.2296" cy="55.2273" fill="url(#j)" r="8.47587" transform="matrix(.68527579 -.72828367 .72828367 .68527579 -22.839048 57.604184)"/><circle cx="55.229" cy="55.2272" r="16.7905" stroke="url(#k)" transform="matrix(.68527579 -.72828367 .72828367 .68527579 -22.839164 57.603716)"/><path d="m29.0907 53.2319c1.7526-5.6672 8.7314-18.4106 22.6265-24.0465" stroke="url(#l)"/><path d="m70.8014 124.546-1.8635.999" stroke="url(#m)"/></svg>