<svg xmlns="http://www.w3.org/2000/svg" width="23" height="20" viewBox="0 0 23 20" fill="none"><path d="M1.33496 18.5579H21.335M6.33496 8.55786H10.335M13.335 18.5579H19.335V10.5579C19.335 9.62598 19.3349 9.16002 19.1826 8.79248C18.9796 8.30242 18.5904 7.91309 18.1003 7.7101C17.7328 7.55786 17.2671 7.55786 16.3352 7.55786C15.4033 7.55786 14.9374 7.55786 14.5698 7.7101C14.0798 7.91309 13.6902 8.30242 13.4872 8.79248C13.335 9.16002 13.335 9.62598 13.335 10.5579V18.5579ZM13.335 18.5579V4.75781C13.335 3.63771 13.3352 3.07773 13.1172 2.6499C12.9254 2.27358 12.6191 1.9676 12.2427 1.77585C11.8149 1.55786 11.2553 1.55786 10.1352 1.55786H6.53516C5.41505 1.55786 4.85458 1.55786 4.42676 1.77585C4.05043 1.9676 3.74469 2.27358 3.55295 2.6499C3.33496 3.07773 3.33496 3.63771 3.33496 4.75781V18.5579H13.335ZM6.33496 5.55786L10.335 5.55786" stroke="url(#paint0_linear_1519_1307)" stroke-width="2" stroke-linecap="round" stroke-linejoin="round"></path><defs><linearGradient id="paint0_linear_1519_1307" x1="7.69849" y1="-3.92614" x2="21.785" y2="25.8323" gradientUnits="userSpaceOnUse"><stop stop-color="#12D9C1"></stop><stop offset="1" stop-color="#EC7FFF"></stop></linearGradient></defs></svg>