<?xml version="1.0" encoding="UTF-8"?> <svg xmlns="http://www.w3.org/2000/svg" width="34" height="22" viewBox="0 0 34 22" fill="none"><path fill-rule="evenodd" clip-rule="evenodd" d="M4.51465 1.02588H29.1652C30.8221 1.02588 32.1652 2.36903 32.1652 4.02588V17.8171C32.1652 19.4739 30.8221 20.8171 29.1652 20.8171H4.51465C2.8578 20.8171 1.51465 19.4739 1.51465 17.8171V4.02588C1.51465 2.36903 2.8578 1.02588 4.51465 1.02588ZM0.514648 4.02588C0.514648 1.81674 2.30551 0.0258789 4.51465 0.0258789H29.1652C31.3744 0.0258789 33.1652 1.81674 33.1652 4.02588V17.8171C33.1652 20.0262 31.3744 21.8171 29.1652 21.8171H4.51465C2.30551 21.8171 0.514648 20.0262 0.514648 17.8171V4.02588ZM3.45612 4.10008C4.09095 4.10008 4.60557 3.58546 4.60557 2.95063C4.60557 2.31581 4.09095 1.80118 3.45612 1.80118C2.8213 1.80118 2.30667 2.31581 2.30667 2.95063C2.30667 3.58546 2.8213 4.10008 3.45612 4.10008ZM8.64365 2.95063C8.64365 3.58546 8.12902 4.10008 7.4942 4.10008C6.85938 4.10008 6.34475 3.58546 6.34475 2.95063C6.34475 2.31581 6.85938 1.80118 7.4942 1.80118C8.12902 1.80118 8.64365 2.31581 8.64365 2.95063ZM11.5329 4.10008C12.1677 4.10008 12.6823 3.58546 12.6823 2.95063C12.6823 2.31581 12.1677 1.80118 11.5329 1.80118C10.8981 1.80118 10.3834 2.31581 10.3834 2.95063C10.3834 3.58546 10.8981 4.10008 11.5329 4.10008ZM5.77445 7.28204C6.16497 6.89152 6.79814 6.89152 7.18866 7.28204L10.6889 10.7823L11.396 11.4894L10.6889 12.1965L7.18866 15.6968C6.79814 16.0873 6.16497 16.0873 5.77445 15.6968C5.38392 15.3063 5.38392 14.6731 5.77445 14.2826L8.5676 11.4894L5.77445 8.69625C5.38392 8.30573 5.38392 7.67256 5.77445 7.28204ZM8.45982 16.0171C7.90754 16.0171 7.45982 16.4648 7.45982 17.0171C7.45982 17.5694 7.90754 18.0171 8.45982 18.0171H15.752C16.3043 18.0171 16.752 17.5694 16.752 17.0171C16.752 16.4648 16.3043 16.0171 15.752 16.0171H8.45982Z" fill="url(#paint0_linear_633_3163)"></path><defs><linearGradient id="paint0_linear_633_3163" x1="3.30139" y1="10.1851" x2="30.1065" y2="10.1851" gradientUnits="userSpaceOnUse"><stop stop-color="#12D9C1"></stop><stop offset="1" stop-color="#EC7FFF"></stop></linearGradient></defs></svg> 