<svg xmlns="http://www.w3.org/2000/svg" width="32" height="32" viewBox="0 0 32 32" fill="none"><path fill-rule="evenodd" clip-rule="evenodd" d="M0.4375 16.1387C0.4375 7.59164 7.37145 0.638672 15.8951 0.638672C24.4187 0.638672 31.3527 7.59164 31.3527 16.1387C31.3527 24.6857 24.4187 31.6387 15.8951 31.6387C7.37145 31.6387 0.4375 24.6857 0.4375 16.1387ZM27.7062 11.5716C27.6587 11.4415 27.5661 11.3331 27.4468 11.2646L27.4433 11.2637C27.324 11.1961 27.1838 11.1718 27.0481 11.1961C26.9123 11.2212 26.7894 11.2932 26.7012 11.399C26.613 11.5048 26.5654 11.6392 26.5654 11.778C26.5663 11.8482 26.5784 11.9168 26.6026 11.9844C27.0887 13.2801 27.3343 14.64 27.3335 16.0251C27.3335 18.8281 26.3172 21.5262 24.4715 23.6215C22.6621 25.6761 20.1868 27.01 17.4908 27.3864V22.1593C17.765 22.1029 18.0375 22.0301 18.303 21.9408V26.4645L18.4102 26.4385C20.6979 25.8808 22.7711 24.5521 24.2466 22.6953C25.7671 20.7821 26.5715 18.476 26.5715 16.0259C26.5741 14.1118 26.0638 12.229 25.0951 10.5803C24.1273 8.93072 22.7322 7.56996 21.062 6.64371C20.9911 6.60555 20.9159 6.58213 20.8363 6.57433C20.7567 6.56652 20.678 6.57519 20.6019 6.59948C20.5258 6.62376 20.4566 6.66279 20.3961 6.71482C20.3355 6.76773 20.2871 6.83017 20.2516 6.90302C20.2127 6.98368 20.1919 7.07301 20.1919 7.16234C20.1919 7.26728 20.2196 7.37049 20.2724 7.46068C20.3251 7.55088 20.4013 7.62633 20.4929 7.6775C21.9806 8.50142 23.2226 9.71214 24.0858 11.1796C24.9489 12.647 25.4047 14.3235 25.4047 16.0268C25.4047 17.979 24.8201 19.8558 23.7121 21.456C22.6561 22.9824 21.2004 24.1558 19.4966 24.8566V21.0258C19.7725 20.9286 20.0146 20.7587 20.2023 20.5323C20.403 20.2895 20.5275 19.9955 20.5639 19.6824C20.6002 19.3684 20.5448 19.0536 20.4038 18.7717C20.2715 18.5063 20.0709 18.2843 19.8218 18.1265C20.0499 16.0248 20.7169 15.6094 21.2054 15.305L21.2065 15.3044C21.4971 15.124 21.7479 14.9678 21.7479 14.5134V13.8664C21.7479 13.196 21.0837 11.6314 19.5995 9.64883C17.5445 6.90389 16.3725 6.61682 16.0646 6.59427C15.9491 6.58253 15.849 6.58783 15.7385 6.59368L15.7273 6.59427C15.4168 6.61682 14.2449 6.90389 12.1872 9.64883C10.7005 11.6314 10.0354 13.196 10.0354 13.8664V14.5117C10.0354 14.9661 10.2862 15.1222 10.5768 15.3026C11.0655 15.6062 11.7332 16.0216 11.9615 18.1239C11.7375 18.2644 11.5507 18.4595 11.4192 18.6902C11.2791 18.9374 11.2064 19.2184 11.209 19.502C11.209 20.1724 11.6493 20.7899 12.2876 21.0249V24.8566C10.5837 24.1567 9.12894 22.9832 8.07202 21.456C6.96494 19.8567 6.37854 17.979 6.37854 16.0277C6.37854 12.5611 8.2623 9.36176 11.2947 7.6775C11.408 7.61419 11.4979 7.51446 11.5489 7.39477C11.6 7.27509 11.6104 7.14066 11.5775 7.0149C11.5455 6.88915 11.4711 6.7764 11.369 6.69661C11.267 6.61682 11.1398 6.57259 11.0101 6.57259H11.0092C10.9115 6.57259 10.8146 6.59774 10.7299 6.64544C9.05888 7.57083 7.66292 8.93159 6.69336 10.5803C5.7238 12.229 5.21178 14.1127 5.21351 16.0268C5.21351 18.4777 6.01787 20.7838 7.53838 22.697C9.01477 24.5539 11.0871 25.8825 13.3748 26.4402L13.482 26.4662V21.9434C13.7475 22.0327 14.02 22.1064 14.2942 22.1619V27.389C11.5982 27.0117 9.12288 25.677 7.3135 23.6233C5.46779 21.5279 4.45066 18.8307 4.45066 16.0268C4.4498 14.6417 4.6963 13.2819 5.1841 11.9861C5.21091 11.9133 5.22302 11.837 5.22043 11.7598C5.21783 11.6826 5.19967 11.6071 5.16767 11.5369C5.13567 11.4666 5.09069 11.4042 5.03361 11.3513C4.97653 11.2984 4.91166 11.2576 4.83901 11.2307C4.76635 11.2039 4.69024 11.1917 4.61326 11.1943C4.53629 11.1969 4.46104 11.2151 4.39098 11.2472C4.32093 11.2793 4.25865 11.3244 4.20589 11.3816C4.15313 11.4389 4.11248 11.5048 4.08567 11.5768C3.38942 13.4423 3.1412 15.4752 3.36694 17.4543C3.59268 19.4335 4.29325 21.3571 5.39168 23.0171C6.49011 24.677 7.9864 26.0716 9.71707 27.049C11.4486 28.0265 13.4128 28.5867 15.3978 28.6682L15.4877 28.6717V22.312C15.6616 22.3198 15.8813 22.3241 15.8951 22.3241C15.8983 22.3239 15.9184 22.3234 15.9496 22.3227C16.0279 22.3209 16.1756 22.3175 16.2999 22.312V28.6717L16.3898 28.6682C18.3748 28.5841 20.3381 28.023 22.0688 27.0447C23.7995 26.0655 25.2949 24.6718 26.3933 23.0119C27.4918 21.3519 28.1932 19.4291 28.4198 17.45C28.6473 15.4709 28.3999 13.438 27.7062 11.5716ZM13.6378 20.0238C13.7589 19.8425 13.8134 19.6239 13.7926 19.4071C13.7718 19.1903 13.6758 18.9865 13.5228 18.8321C13.4354 18.7437 13.3325 18.6743 13.2174 18.6266C13.1024 18.5789 12.9813 18.5546 12.8576 18.5546H12.8568C12.6397 18.5546 12.4278 18.6309 12.26 18.7688C12.0922 18.9067 11.9763 19.1001 11.9339 19.3143C11.8915 19.5277 11.9244 19.7514 12.0265 19.9431C12.1285 20.1348 12.2955 20.2865 12.4961 20.3707C12.6968 20.4539 12.9216 20.4652 13.1292 20.4028C13.3368 20.3394 13.5184 20.2059 13.6386 20.0246L13.6378 20.0238ZM19.7664 19.0607C19.6643 18.8682 19.4983 18.7164 19.2976 18.6332C19.1826 18.5846 19.0589 18.5603 18.9352 18.5603C18.8444 18.5603 18.7527 18.5733 18.6645 18.6002C18.4569 18.6627 18.2753 18.7971 18.1542 18.9775C18.0331 19.1579 17.9778 19.3773 17.9985 19.5932C18.0193 19.8101 18.1144 20.0139 18.2675 20.1683C18.3549 20.2567 18.4578 20.3261 18.5728 20.3747C18.6879 20.4224 18.8089 20.4466 18.9335 20.4466H18.9344C19.1514 20.4466 19.3625 20.3712 19.5303 20.2333C19.6981 20.0954 19.814 19.902 19.8572 19.6886C19.8996 19.4753 19.8676 19.2515 19.7655 19.0599L19.7664 19.0607Z" fill="#F1F1F1"></path></svg>