<svg xmlns="http://www.w3.org/2000/svg" width="21" height="18" viewBox="0 0 21 18" fill="none"><path d="M15.2334 16.5142C15.2334 14.8573 12.9948 13.5142 10.2334 13.5142C7.47197 13.5142 5.2334 14.8573 5.2334 16.5142M19.2334 13.514C19.2334 12.2839 17.9993 11.2266 16.2334 10.7637M1.2334 13.514C1.2334 12.2839 2.46749 11.2266 4.2334 10.7637M16.2334 6.75027C16.8471 6.20095 17.2334 5.40266 17.2334 4.51416C17.2334 2.85731 15.8903 1.51416 14.2334 1.51416C13.465 1.51416 12.7642 1.80301 12.2334 2.27805M4.2334 6.75027C3.61965 6.20095 3.2334 5.40266 3.2334 4.51416C3.2334 2.85731 4.57654 1.51416 6.2334 1.51416C7.00175 1.51416 7.70264 1.80301 8.2334 2.27805M10.2334 10.5142C8.57654 10.5142 7.2334 9.17101 7.2334 7.51416C7.2334 5.85731 8.57654 4.51416 10.2334 4.51416C11.8903 4.51416 13.2334 5.85731 13.2334 7.51416C13.2334 9.17101 11.8903 10.5142 10.2334 10.5142Z" stroke="url(#paint0_linear_1519_1306)" stroke-width="2" stroke-linecap="round" stroke-linejoin="round"></path><defs><linearGradient id="paint0_linear_1519_1306" x1="6.96058" y1="-3.32467" x2="19.2334" y2="23.1208" gradientUnits="userSpaceOnUse"><stop stop-color="#12D9C1"></stop><stop offset="1" stop-color="#EC7FFF"></stop></linearGradient></defs></svg>