<?xml version="1.0" encoding="UTF-8"?> <svg xmlns="http://www.w3.org/2000/svg" width="33" height="34" viewBox="0 0 33 34" fill="none"><path d="M23.0037 1.7871L23.0121 1.77926L23.0202 1.77104C23.4733 1.31139 24.1599 1.19419 24.7339 1.47459L30.7915 4.43383C30.6178 4.49657 30.4478 4.58854 30.2867 4.71254L30.5917 5.10876L30.2867 4.71254L4.12213 24.8515C3.8004 25.0992 3.35183 25.0794 3.05209 24.8029L2.72189 25.1609L3.05209 24.8029L1.27735 23.1659L0.938346 23.5335L1.27734 23.1659C0.90662 22.824 0.906188 22.2291 1.27642 21.8866L0.937161 21.5199L1.27643 21.8866L23.0037 1.7871Z" stroke="url(#paint0_linear_360_32328)"></path><path d="M24.7339 32.6863L24.7339 32.6863C24.1599 32.9667 23.4733 32.8495 23.0202 32.3898L23.0121 32.3816L23.0037 32.3737L1.27643 12.2742C0.906178 11.9317 0.906627 11.3368 1.27734 10.9949L1.27735 10.9949L3.05209 9.35791C3.35183 9.08144 3.8004 9.06167 4.12213 9.30931C4.12213 9.30931 4.12213 9.30931 4.12213 9.30931L30.2867 29.4483C30.4478 29.5723 30.6178 29.6643 30.7915 29.727L24.7339 32.6863Z" fill="#1B2936" stroke="url(#paint1_linear_360_32328)"></path><path d="M25.0588 32.528C25.1341 32.3364 25.1763 32.124 25.1763 31.8947V2.26645C25.1763 2.03723 25.1341 1.82476 25.0588 1.63317L31.3693 4.71223L31.5885 4.26286L31.3693 4.71223C31.8922 4.96737 32.2292 5.50691 32.2292 6.10369V28.0576C32.2292 28.6544 31.8922 29.1939 31.3692 29.4491L25.0588 32.528Z" fill="#1B2936" stroke="url(#paint2_linear_360_32328)"></path><defs><linearGradient id="paint0_linear_360_32328" x1="16.6146" y1="0.82373" x2="16.6146" y2="25.5246" gradientUnits="userSpaceOnUse"><stop stop-color="#14D9C2"></stop><stop offset="0.54" stop-color="#4E8EFF"></stop><stop offset="1" stop-color="#EC80FF"></stop></linearGradient><linearGradient id="paint1_linear_360_32328" x1="16.6146" y1="8.63623" x2="16.6146" y2="33.3371" gradientUnits="userSpaceOnUse"><stop stop-color="#14D9C2"></stop><stop offset="0.54" stop-color="#4E8EFF"></stop><stop offset="1" stop-color="#EC80FF"></stop></linearGradient><linearGradient id="paint2_linear_360_32328" x1="27.6962" y1="0.82373" x2="27.6962" y2="33.3375" gradientUnits="userSpaceOnUse"><stop stop-color="#14D9C2"></stop><stop offset="0.54" stop-color="#4E8EFF"></stop><stop offset="1" stop-color="#EC80FF"></stop></linearGradient></defs></svg> 