<?xml version="1.0" encoding="UTF-8"?> <svg xmlns="http://www.w3.org/2000/svg" width="72" height="43" viewBox="0 0 72 43" fill="none"><path fill-rule="evenodd" clip-rule="evenodd" d="M53 1H67.2715C68.8218 1 70.0975 2.17598 70.2551 3.68457H50.0164C50.174 2.17598 51.4497 1 53 1ZM67.2715 0C69.3745 0 71.0984 1.62288 71.2592 3.68457H71.2712V3.9533L71.2715 4V38.2167C71.2715 40.4258 69.4806 42.2167 67.2715 42.2167H53C50.7909 42.2167 49 40.4259 49 38.2167V35.2253V34.2253V4.68457V4V3.68457H49.0122C49.1731 1.62288 50.897 0 53 0H67.2715ZM70.2712 35.2253H70.2715V38.2167C70.2715 39.8736 68.9283 41.2167 67.2715 41.2167H53C51.3431 41.2167 50 39.8736 50 38.2167V35.2253H70.2712ZM70.2712 34.2253H50V4.68457H70.2712V34.2253ZM1 4.19065L1 8.00073L42.3782 8.00073V4.19065C42.3782 2.5338 41.0351 1.19065 39.3782 1.19065L4 1.19065C2.34314 1.19065 1 2.5338 1 4.19065ZM1 38.2167L1 9.00073L42.3782 9.00073V38.2167C42.3782 39.8736 41.0351 41.2167 39.3782 41.2167H4C2.34315 41.2167 1 39.8736 1 38.2167ZM43.3782 38.2167V9.00073H43.3789V8.00073H43.3782V4.19065C43.3782 1.98151 41.5874 0.190653 39.3782 0.190653L4 0.190655C1.79086 0.190655 0 1.98151 0 4.19065V38.2167C0 40.4259 1.79087 42.2167 4 42.2167H39.3782C41.5874 42.2167 43.3782 40.4259 43.3782 38.2167ZM11.2773 4.37873C11.2773 3.60949 11.9009 2.9859 12.6702 2.9859H30.7073C31.4765 2.9859 32.1001 3.60949 32.1001 4.37873C32.1001 5.14796 31.4765 5.77155 30.7073 5.77155H12.6702C11.9009 5.77155 11.2773 5.14796 11.2773 4.37873ZM4.5826 6.38938C5.52244 6.38938 6.28434 5.62748 6.28434 4.68764C6.28434 3.7478 5.52244 2.9859 4.5826 2.9859C3.64275 2.9859 2.88086 3.7478 2.88086 4.68764C2.88086 5.62748 3.64275 6.38938 4.5826 6.38938ZM60.1353 40.6451C61.3842 40.6451 62.3966 39.6326 62.3966 38.3837C62.3966 37.1349 61.3842 36.1224 60.1353 36.1224C58.8864 36.1224 57.874 37.1349 57.874 38.3837C57.874 39.6326 58.8864 40.6451 60.1353 40.6451Z" fill="url(#paint0_linear_702_281)"></path><defs><linearGradient id="paint0_linear_702_281" x1="71" y1="19.6817" x2="4.14603e-06" y2="19.5" gradientUnits="userSpaceOnUse"><stop stop-color="#EC7FFF"></stop><stop offset="1" stop-color="#12D9C1"></stop></linearGradient></defs></svg> 